<svg xmlns="http://www.w3.org/2000/svg" width="171.411mm" height="171.411mm" viewBox="-85.706 -85.706 171.411 171.411">
<g fill="none" stroke="#000000" stroke-width="0.7056" stroke-linejoin="round" stroke-linecap="round">
<path d="M-0.00 18.19 L-0.13 18.09 L-0.25 17.99 L-0.37 17.89 L-0.50 17.79 L-0.62 17.69 L-0.74 17.59 L-0.86 17.48 L-0.97 17.38 L-1.09 17.28 L-1.20 17.17 L-1.31 17.07 L-1.42 16.96 L-1.53 16.86 L-1.64 16.75 L-1.75 16.65 L-1.86 16.54 L-1.96 16.44 L-2.06 16.33 L-2.17 16.23 L-2.27 16.12 L-2.37 16.02 L-2.46 15.91 L-2.56 15.81 L-2.66 15.71 L-2.75 15.60 L-2.84 15.50 L-2.94 15.40 L-3.03 15.30 L-3.12 15.19 L-3.21 15.09 L-3.30 14.99 L-3.38 14.90 L-3.47 14.80 L-3.56 14.70 L-3.64 14.60 L-3.72 14.51 L-3.81 14.41 L-3.89 14.32 L-3.97 14.22 L-4.05 14.13 L-4.13 14.04 L-4.21 13.95 L-4.29 13.86 L-4.37 13.78 L-4.45 13.69 L-4.53 13.60 L-4.60 13.52 L-4.68 13.44 L-4.76 13.35 L-4.83 13.27 L-4.91 13.19 L-4.98 13.12 L-5.06 13.04 L-5.13 12.96 L-5.21 12.89 L-5.28 12.82 L-5.36 12.75 L-5.43 12.68 L-5.51 12.61 L-5.58 12.54 L-5.66 12.47 L-5.73 12.41 L-5.81 12.35 L-5.89 12.28 L-5.96 12.22 L-6.04 12.16 L-6.12 12.11 L-6.19 12.05 L-6.27 11.99 L-6.35 11.94 L-6.43 11.89 L-6.51 11.84 L-6.59 11.79 L-6.67 11.74 L-6.75 11.69 L-6.83 11.64 L-6.91 11.60 L-7.00 11.55 L-7.08 11.51 L-7.17 11.47 L-7.25 11.43 L-7.34 11.39 L-7.43 11.35 L-7.52 11.31 L-7.60 11.27 L-7.70 11.24 L-7.79 11.20 L-7.88 11.17 L-7.97 11.14 L-8.07 11.11 L-8.16 11.07 L-8.26 11.04 L-8.36 11.01 L-8.46 10.98 L-8.56 10.96 L-8.66 10.93 L-8.76 10.90 L-8.87 10.87 L-8.97 10.85 L-9.08 10.82 L-9.19 10.80 L-9.30 10.77 L-9.41 10.75 L-9.52 10.72 L-9.63 10.70 L-9.74 10.67 L-9.86 10.65 L-9.98 10.62 L-10.09 10.60 L-10.21 10.58 L-10.33 10.55 L-10.45 10.53 L-10.58 10.50 L-10.70 10.48 L-10.83 10.45 L-10.95 10.43 L-11.08 10.40 L-11.21 10.38 L-11.34 10.35 L-11.47 10.33 L-11.60 10.30 L-11.73 10.27 L-11.87 10.24 L-12.00 10.21 L-12.14 10.18 L-12.27 10.15 L-12.41 10.12 L-12.55 10.09 L-12.69 10.06 L-12.83 10.02 L-12.97 9.99 L-13.11 9.95 L-13.26 9.92 L-13.40 9.88 L-13.54 9.84 L-13.69 9.80 L-13.83 9.76 L-13.98 9.71 L-14.12 9.67 L-14.27 9.63 L-14.42 9.58 L-14.57 9.53 L-14.71 9.48 L-14.86 9.43 L-15.01 9.38 L-15.16 9.33 L-15.31 9.27 L-15.45 9.21 L-15.60 9.15 L-15.75 9.09 L-15.73 8.94 L-15.71 8.78 L-15.68 8.62 L-15.65 8.46 L-15.63 8.31 L-15.60 8.15 L-15.57 8.00 L-15.54 7.85 L-15.50 7.70 L-15.47 7.55 L-15.44 7.40 L-15.40 7.25 L-15.37 7.10 L-15.33 6.95 L-15.29 6.81 L-15.25 6.66 L-15.22 6.52 L-15.18 6.38 L-15.14 6.24 L-15.10 6.10 L-15.05 5.96 L-15.01 5.82 L-14.97 5.69 L-14.93 5.55 L-14.89 5.42 L-14.85 5.29 L-14.80 5.16 L-14.76 5.02 L-14.72 4.90 L-14.68 4.77 L-14.63 4.64 L-14.59 4.52 L-14.55 4.39 L-14.51 4.27 L-14.47 4.15 L-14.43 4.03 L-14.38 3.91 L-14.34 3.79 L-14.30 3.67 L-14.27 3.56 L-14.23 3.44 L-14.19 3.33 L-14.15 3.22 L-14.11 3.10 L-14.08 2.99 L-14.04 2.88 L-14.01 2.77 L-13.98 2.67 L-13.94 2.56 L-13.91 2.45 L-13.88 2.35 L-13.85 2.24 L-13.82 2.14 L-13.79 2.04 L-13.77 1.93 L-13.74 1.83 L-13.72 1.73 L-13.69 1.63 L-13.67 1.53 L-13.65 1.43 L-13.63 1.34 L-13.61 1.24 L-13.60 1.14 L-13.58 1.05 L-13.57 0.95 L-13.55 0.85 L-13.54 0.76 L-13.53 0.66 L-13.52 0.57 L-13.51 0.47 L-13.51 0.38 L-13.50 0.28 L-13.50 0.19 L-13.50 0.09 L-13.50 -0.00 L-13.50 -0.09 L-13.50 -0.19 L-13.50 -0.28 L-13.51 -0.38 L-13.51 -0.47 L-13.52 -0.57 L-13.53 -0.66 L-13.54 -0.76 L-13.55 -0.85 L-13.57 -0.95 L-13.58 -1.05 L-13.60 -1.14 L-13.61 -1.24 L-13.63 -1.34 L-13.65 -1.43 L-13.67 -1.53 L-13.69 -1.63 L-13.72 -1.73 L-13.74 -1.83 L-13.77 -1.93 L-13.79 -2.04 L-13.82 -2.14 L-13.85 -2.24 L-13.88 -2.35 L-13.91 -2.45 L-13.94 -2.56 L-13.98 -2.67 L-14.01 -2.77 L-14.04 -2.88 L-14.08 -2.99 L-14.11 -3.10 L-14.15 -3.22 L-14.19 -3.33 L-14.23 -3.44 L-14.27 -3.56 L-14.30 -3.67 L-14.34 -3.79 L-14.38 -3.91 L-14.43 -4.03 L-14.47 -4.15 L-14.51 -4.27 L-14.55 -4.39 L-14.59 -4.52 L-14.63 -4.64 L-14.68 -4.77 L-14.72 -4.90 L-14.76 -5.02 L-14.80 -5.16 L-14.85 -5.29 L-14.89 -5.42 L-14.93 -5.55 L-14.97 -5.69 L-15.01 -5.82 L-15.05 -5.96 L-15.10 -6.10 L-15.14 -6.24 L-15.18 -6.38 L-15.22 -6.52 L-15.25 -6.66 L-15.29 -6.81 L-15.33 -6.95 L-15.37 -7.10 L-15.40 -7.25 L-15.44 -7.40 L-15.47 -7.55 L-15.50 -7.70 L-15.54 -7.85 L-15.57 -8.00 L-15.60 -8.15 L-15.63 -8.31 L-15.65 -8.46 L-15.68 -8.62 L-15.71 -8.78 L-15.73 -8.94 L-15.75 -9.09 L-15.60 -9.15 L-15.45 -9.21 L-15.31 -9.27 L-15.16 -9.33 L-15.01 -9.38 L-14.86 -9.43 L-14.71 -9.48 L-14.57 -9.53 L-14.42 -9.58 L-14.27 -9.63 L-14.12 -9.67 L-13.98 -9.71 L-13.83 -9.76 L-13.69 -9.80 L-13.54 -9.84 L-13.40 -9.88 L-13.26 -9.92 L-13.11 -9.95 L-12.97 -9.99 L-12.83 -10.02 L-12.69 -10.06 L-12.55 -10.09 L-12.41 -10.12 L-12.27 -10.15 L-12.14 -10.18 L-12.00 -10.21 L-11.87 -10.24 L-11.73 -10.27 L-11.60 -10.30 L-11.47 -10.33 L-11.34 -10.35 L-11.21 -10.38 L-11.08 -10.40 L-10.95 -10.43 L-10.83 -10.45 L-10.70 -10.48 L-10.58 -10.50 L-10.45 -10.53 L-10.33 -10.55 L-10.21 -10.58 L-10.09 -10.60 L-9.98 -10.62 L-9.86 -10.65 L-9.74 -10.67 L-9.63 -10.70 L-9.52 -10.72 L-9.41 -10.75 L-9.30 -10.77 L-9.19 -10.80 L-9.08 -10.82 L-8.97 -10.85 L-8.87 -10.87 L-8.76 -10.90 L-8.66 -10.93 L-8.56 -10.96 L-8.46 -10.98 L-8.36 -11.01 L-8.26 -11.04 L-8.16 -11.07 L-8.07 -11.11 L-7.97 -11.14 L-7.88 -11.17 L-7.79 -11.20 L-7.70 -11.24 L-7.60 -11.27 L-7.52 -11.31 L-7.43 -11.35 L-7.34 -11.39 L-7.25 -11.43 L-7.17 -11.47 L-7.08 -11.51 L-7.00 -11.55 L-6.91 -11.60 L-6.83 -11.64 L-6.75 -11.69 L-6.67 -11.74 L-6.59 -11.79 L-6.51 -11.84 L-6.43 -11.89 L-6.35 -11.94 L-6.27 -11.99 L-6.19 -12.05 L-6.12 -12.11 L-6.04 -12.16 L-5.96 -12.22 L-5.89 -12.28 L-5.81 -12.35 L-5.73 -12.41 L-5.66 -12.47 L-5.58 -12.54 L-5.51 -12.61 L-5.43 -12.68 L-5.36 -12.75 L-5.28 -12.82 L-5.21 -12.89 L-5.13 -12.96 L-5.06 -13.04 L-4.98 -13.12 L-4.91 -13.19 L-4.83 -13.27 L-4.76 -13.35 L-4.68 -13.44 L-4.60 -13.52 L-4.53 -13.60 L-4.45 -13.69 L-4.37 -13.78 L-4.29 -13.86 L-4.21 -13.95 L-4.13 -14.04 L-4.05 -14.13 L-3.97 -14.22 L-3.89 -14.32 L-3.81 -14.41 L-3.72 -14.51 L-3.64 -14.60 L-3.56 -14.70 L-3.47 -14.80 L-3.38 -14.90 L-3.30 -14.99 L-3.21 -15.09 L-3.12 -15.19 L-3.03 -15.30 L-2.94 -15.40 L-2.84 -15.50 L-2.75 -15.60 L-2.66 -15.71 L-2.56 -15.81 L-2.46 -15.91 L-2.37 -16.02 L-2.27 -16.12 L-2.17 -16.23 L-2.06 -16.33 L-1.96 -16.44 L-1.86 -16.54 L-1.75 -16.65 L-1.64 -16.75 L-1.53 -16.86 L-1.42 -16.96 L-1.31 -17.07 L-1.20 -17.17 L-1.09 -17.28 L-0.97 -17.38 L-0.86 -17.48 L-0.74 -17.59 L-0.62 -17.69 L-0.50 -17.79 L-0.37 -17.89 L-0.25 -17.99 L-0.13 -18.09 L0.00 -18.19"/>
<path d="M-0.56 -17.74 L-0.44 -17.84 L-0.31 -17.94 L-0.19 -18.04 L-0.06 -18.14 L0.00 -18.14"/>
<path d="M0.00 -56.30 L-0.35 -56.30 L-0.71 -56.29 L-1.06 -56.27 L-1.41 -56.25 L-1.77 -56.22 L-1.77 -56.21 L-1.79 -56.20 L-1.81 -56.17 L-1.85 -56.13 L-1.89 -56.09 L-1.95 -56.03 L-2.01 -55.96 L-2.09 -55.88 L-2.17 -55.78 L-2.27 -55.68 L-2.37 -55.57 L-2.49 -55.44 L-2.61 -55.30 L-2.74 -55.15 L-2.88 -54.99 L-3.03 -54.82 L-3.18 -54.63 L-3.35 -54.44 L-3.52 -54.22 L-3.70 -54.00 L-3.88 -53.76 L-4.08 -53.51 L-4.27 -53.25 L-4.48 -52.98 L-4.69 -52.69 L-4.90 -52.38 L-5.12 -52.07 L-5.35 -51.73 L-5.58 -51.39 L-5.81 -51.03 L-6.04 -50.66 L-6.27 -50.27 L-6.51 -49.87 L-6.75 -49.46 L-6.98 -49.03 L-7.22 -48.59 L-7.45 -48.14 L-7.69 -47.67 L-7.92 -47.19 L-8.15 -46.70 L-8.37 -46.20 L-8.60 -45.69 L-8.81 -45.16 L-9.02 -44.63 L-9.23 -44.08 L-9.43 -43.53 L-9.62 -42.97 L-9.81 -42.40 L-9.99 -41.82 L-10.16 -41.24 L-10.32 -40.65 L-10.47 -40.06 L-10.61 -39.46 L-10.74 -38.87 L-10.87 -38.27 L-10.98 -37.67 L-11.09 -37.07 L-11.18 -36.47 L-11.26 -35.87 L-11.33 -35.28 L-11.40 -34.68 L-11.45 -34.10 L-11.49 -33.52 L-11.52 -32.94 L-11.54 -32.38 L-11.55 -31.82 L-11.55 -31.27 L-11.54 -30.72 L-11.52 -30.19 L-11.49 -29.67 L-11.46 -29.15 L-11.41 -28.65 L-11.36 -28.16 L-11.29 -27.68 L-11.22 -27.21 L-11.14 -26.76 L-11.06 -26.31 L-10.96 -25.88 L-10.86 -25.46 L-10.75 -25.06 L-10.64 -24.66 L-10.52 -24.28 L-10.39 -23.91 L-10.26 -23.55 L-10.12 -23.20 L-9.98 -22.87 L-9.83 -22.54 L-9.67 -22.23 L-9.51 -21.93 L-9.35 -21.63 L-9.18 -21.35 L-9.01 -21.08 L-8.84 -20.82 L-8.66 -20.57 L-8.48 -20.33 L-8.29 -20.09 L-8.10 -19.87 L-7.91 -19.65 L-7.72 -19.45 L-7.53 -19.25 L-7.33 -19.06 L-7.13 -18.87 L-6.93 -18.70 L-6.73 -18.53 L-6.53 -18.38 L-6.33 -18.23 L-6.13 -18.08 L-5.93 -17.95 L-5.73 -17.82 L-5.53 -17.70 L-5.33 -17.59 L-5.13 -17.49 L-4.94 -17.39 L-4.74 -17.31 L-4.55 -17.23 L-4.35 -17.16 L-4.16 -17.10 L-3.98 -17.04 L-3.79 -17.00 L-3.60 -16.96 L-3.42 -16.94 L-3.24 -16.92 L-3.06 -16.91 L-2.89 -16.90 L-2.71 -16.91 L-2.54 -16.92 L-2.37 -16.95 L-2.21 -16.97 L-2.04 -17.01 L-1.88 -17.06 L-1.72 -17.11 L-1.57 -17.16 L-1.42 -17.23 L-1.27 -17.29 L-1.13 -17.37 L-0.99 -17.44 L-0.86 -17.52 L-0.74 -17.60 L-0.64 -17.68 L-0.56 -17.74"/>
<path d="M0.00 18.14 L-0.06 18.14 L-0.19 18.04 L-0.31 17.94 L-0.44 17.84 L-0.56 17.74 L-0.64 17.68 L-0.74 17.60 L-0.86 17.52 L-0.99 17.44 L-1.13 17.37 L-1.27 17.29 L-1.42 17.23 L-1.57 17.16 L-1.72 17.11 L-1.88 17.06 L-2.04 17.01 L-2.21 16.97 L-2.37 16.95 L-2.54 16.92 L-2.71 16.91 L-2.89 16.90 L-3.06 16.91 L-3.24 16.92 L-3.42 16.94 L-3.60 16.96 L-3.79 17.00 L-3.98 17.04 L-4.16 17.10 L-4.35 17.16 L-4.55 17.23 L-4.74 17.31 L-4.94 17.39 L-5.13 17.49 L-5.33 17.59 L-5.53 17.70 L-5.73 17.82 L-5.93 17.95 L-6.13 18.08 L-6.33 18.23 L-6.53 18.38 L-6.73 18.53 L-6.93 18.70 L-7.13 18.87 L-7.33 19.06 L-7.53 19.25 L-7.72 19.45 L-7.91 19.65 L-8.10 19.87 L-8.29 20.09 L-8.48 20.33 L-8.66 20.57 L-8.84 20.82 L-9.01 21.08 L-9.18 21.35 L-9.35 21.63 L-9.51 21.93 L-9.67 22.23 L-9.83 22.54 L-9.98 22.87 L-10.12 23.20 L-10.26 23.55 L-10.39 23.91 L-10.52 24.28 L-10.64 24.66 L-10.75 25.06 L-10.86 25.46 L-10.96 25.88 L-11.06 26.31 L-11.14 26.76 L-11.22 27.21 L-11.29 27.68 L-11.36 28.16 L-11.41 28.65 L-11.46 29.15 L-11.49 29.67 L-11.52 30.19 L-11.54 30.72 L-11.55 31.27 L-11.55 31.82 L-11.54 32.38 L-11.52 32.94 L-11.49 33.52 L-11.45 34.10 L-11.40 34.68 L-11.33 35.28 L-11.26 35.87 L-11.18 36.47 L-11.09 37.07 L-10.98 37.67 L-10.87 38.27 L-10.74 38.87 L-10.61 39.46 L-10.47 40.06 L-10.32 40.65 L-10.16 41.24 L-9.99 41.82 L-9.81 42.40 L-9.62 42.97 L-9.43 43.53 L-9.23 44.08 L-9.02 44.63 L-8.81 45.16 L-8.60 45.69 L-8.37 46.20 L-8.15 46.70 L-7.92 47.19 L-7.69 47.67 L-7.45 48.14 L-7.22 48.59 L-6.98 49.03 L-6.75 49.46 L-6.51 49.87 L-6.27 50.27 L-6.04 50.66 L-5.81 51.03 L-5.58 51.39 L-5.35 51.73 L-5.12 52.07 L-4.90 52.38 L-4.69 52.69 L-4.48 52.98 L-4.27 53.25 L-4.08 53.51 L-3.88 53.76 L-3.70 54.00 L-3.52 54.22 L-3.35 54.44 L-3.18 54.63 L-3.03 54.82 L-2.88 54.99 L-2.74 55.15 L-2.61 55.30 L-2.49 55.44 L-2.37 55.57 L-2.27 55.68 L-2.17 55.78 L-2.09 55.88 L-2.01 55.96 L-1.95 56.03 L-1.89 56.09 L-1.85 56.13 L-1.81 56.17 L-1.79 56.20 L-1.77 56.21 L-1.77 56.22 L-1.37 56.25 L-0.98 56.28 L-0.59 56.29 L-0.20 56.30 L0.00 56.30"/>
<path d="M-0.56 17.74 L-0.68 17.64 L-0.80 17.53 L-0.91 17.43 L-1.03 17.33 L-1.14 17.22 L-1.26 17.12 L-1.37 17.01 L-1.48 16.91 L-1.59 16.81 L-1.70 16.70 L-1.80 16.59 L-1.91 16.49 L-2.01 16.38 L-2.11 16.28 L-2.22 16.17 L-2.32 16.07 L-2.41 15.97 L-2.51 15.86 L-2.61 15.76 L-2.70 15.65 L-2.80 15.55 L-2.89 15.45 L-2.98 15.35 L-3.07 15.25 L-3.16 15.14 L-3.25 15.04 L-3.34 14.94 L-3.43 14.85 L-3.51 14.75 L-3.60 14.65 L-3.68 14.55 L-3.77 14.46 L-3.85 14.36 L-3.93 14.27 L-4.01 14.18 L-4.09 14.09 L-4.17 14.00 L-4.25 13.91 L-4.33 13.82 L-4.41 13.73 L-4.49 13.65 L-4.56 13.56 L-4.64 13.48 L-4.72 13.40 L-4.79 13.31 L-4.87 13.23 L-4.94 13.16 L-5.02 13.08 L-5.10 13.00 L-5.17 12.93 L-5.25 12.85 L-5.32 12.78 L-5.40 12.71 L-5.47 12.64 L-5.55 12.57 L-5.62 12.51 L-5.70 12.44 L-5.77 12.38 L-5.85 12.31 L-5.92 12.25 L-6.00 12.19 L-6.08 12.13 L-6.15 12.08 L-6.23 12.02 L-6.31 11.97 L-6.39 11.91 L-6.47 11.86 L-6.55 11.81 L-6.63 11.76 L-6.71 11.71 L-6.79 11.67 L-6.87 11.62 L-6.95 11.57 L-7.04 11.53 L-7.12 11.49 L-7.21 11.45 L-7.30 11.41 L-7.38 11.37 L-7.47 11.33 L-7.56 11.29 L-7.65 11.26 L-7.74 11.22 L-7.83 11.19 L-7.93 11.15 L-8.02 11.12 L-8.12 11.09 L-8.21 11.06 L-8.31 11.03 L-8.41 11.00 L-8.51 10.97 L-8.61 10.94 L-8.71 10.91 L-8.82 10.89 L-8.92 10.86 L-9.03 10.83 L-9.13 10.81 L-9.24 10.78 L-9.35 10.76 L-9.46 10.73 L-9.57 10.71 L-9.69 10.68 L-9.80 10.66 L-9.92 10.64 L-10.04 10.61 L-10.15 10.59 L-10.27 10.56 L-10.39 10.54 L-10.52 10.52 L-10.64 10.49 L-10.76 10.47 L-10.89 10.44 L-11.02 10.42 L-11.14 10.39 L-11.27 10.37 L-11.40 10.34 L-11.53 10.31 L-11.67 10.28 L-11.80 10.26 L-11.93 10.23 L-12.07 10.20 L-12.20 10.17 L-12.34 10.14 L-12.48 10.11 L-12.62 10.07 L-12.76 10.04 L-12.90 10.01 L-13.04 9.97 L-13.18 9.93 L-13.33 9.90 L-13.47 9.86 L-13.61 9.82 L-13.76 9.78 L-13.90 9.74 L-14.05 9.69 L-14.20 9.65 L-14.34 9.60 L-14.49 9.56 L-14.64 9.51 L-14.79 9.46 L-14.94 9.41 L-15.08 9.35 L-14.99 9.39 L-14.87 9.44 L-14.74 9.51 L-14.61 9.58 L-14.48 9.66 L-14.34 9.75 L-14.21 9.84 L-14.08 9.94 L-13.95 10.05 L-13.83 10.16 L-13.71 10.27 L-13.60 10.40 L-13.49 10.53 L-13.39 10.66 L-13.29 10.80 L-13.20 10.95 L-13.11 11.11 L-13.03 11.27 L-12.96 11.43 L-12.89 11.60 L-12.83 11.78 L-12.77 11.97 L-12.72 12.16 L-12.68 12.35 L-12.65 12.55 L-12.62 12.76 L-12.60 12.97 L-12.58 13.19 L-12.57 13.41 L-12.57 13.64 L-12.57 13.87 L-12.58 14.11 L-12.60 14.35 L-12.62 14.60 L-12.65 14.85 L-12.69 15.10 L-12.73 15.35 L-12.78 15.61 L-12.84 15.88 L-12.91 16.14 L-12.98 16.41 L-13.06 16.68 L-13.16 16.95 L-13.26 17.23 L-13.36 17.50 L-13.48 17.78 L-13.61 18.06 L-13.75 18.35 L-13.90 18.63 L-14.06 18.92 L-14.23 19.20 L-14.41 19.49 L-14.61 19.78 L-14.81 20.07 L-15.03 20.36 L-15.26 20.66 L-15.51 20.95 L-15.77 21.25 L-16.04 21.54 L-16.32 21.84 L-16.62 22.14 L-16.93 22.43 L-17.26 22.73 L-17.60 23.03 L-17.96 23.32 L-18.33 23.62 L-18.71 23.91 L-19.11 24.21 L-19.52 24.50 L-19.94 24.79 L-20.38 25.07 L-20.84 25.36 L-21.30 25.63 L-21.78 25.91 L-22.27 26.18 L-22.77 26.45 L-23.28 26.71 L-23.81 26.96 L-24.34 27.21 L-24.88 27.45 L-25.43 27.69 L-25.99 27.91 L-26.56 28.13 L-27.13 28.34 L-27.71 28.55 L-28.29 28.74 L-28.87 28.92 L-29.46 29.10 L-30.05 29.26 L-30.64 29.41 L-31.22 29.56 L-31.81 29.69 L-32.40 29.82 L-32.98 29.93 L-33.56 30.03 L-34.14 30.13 L-34.70 30.21 L-35.27 30.29 L-35.82 30.35 L-36.37 30.41 L-36.91 30.46 L-37.44 30.49 L-37.96 30.52 L-38.47 30.55 L-38.97 30.56 L-39.46 30.57 L-39.94 30.57 L-40.40 30.57 L-40.85 30.56 L-41.29 30.54 L-41.72 30.52 L-42.13 30.50 L-42.53 30.47 L-42.91 30.44 L-43.28 30.40 L-43.64 30.37 L-43.98 30.33 L-44.31 30.29 L-44.62 30.25 L-44.92 30.20 L-45.20 30.16 L-45.47 30.12 L-45.72 30.07 L-45.96 30.03 L-46.19 29.99 L-46.40 29.95 L-46.59 29.91 L-46.77 29.87 L-46.94 29.84 L-47.09 29.81 L-47.22 29.78 L-47.35 29.75 L-47.45 29.72 L-47.55 29.70 L-47.63 29.68 L-47.69 29.67 L-47.74 29.66 L-47.78 29.65 L-47.80 29.64 L-47.80 29.64 L-47.57 29.96 L-47.34 30.27 L-47.09 30.58 L-46.84 30.89 L-46.59 31.19 L-46.33 31.48 L-46.06 31.77 L-45.78 32.06 L-45.50 32.34 L-45.22 32.61 L-44.93 32.88 L-44.63 33.14 L-44.33 33.40 L-44.02 33.65 L-43.71 33.90 L-43.39 34.14 L-43.06 34.38 L-42.74 34.61 L-42.40 34.83 L-42.07 35.05 L-41.72 35.26 L-41.38 35.47 L-41.03 35.66 L-40.67 35.86 L-40.31 36.05 L-39.95 36.23 L-39.59 36.40 L-39.22 36.57 L-38.84 36.73 L-38.47 36.89 L-38.09 37.04 L-37.71 37.18 L-37.32 37.32 L-36.93 37.45 L-36.54 37.58 L-36.15 37.70 L-35.76 37.81 L-35.36 37.92 L-34.96 38.02 L-34.56 38.11 L-34.16 38.20 L-33.75 38.28 L-33.35 38.36 L-32.94 38.43 L-32.53 38.50 L-32.12 38.56 L-31.71 38.61 L-31.30 38.66 L-30.89 38.70 L-30.48 38.73 L-30.07 38.76 L-29.66 38.79 L-29.24 38.81 L-28.83 38.82 L-28.42 38.83 L-28.01 38.83 L-27.60 38.83 L-27.18 38.82 L-26.77 38.81 L-26.37 38.80 L-25.96 38.77 L-25.55 38.75 L-25.14 38.72 L-24.74 38.68 L-24.33 38.64 L-23.93 38.60 L-23.53 38.55 L-23.13 38.50 L-22.73 38.44 L-22.34 38.38 L-22.07 38.54 L-21.92 38.91 L-21.77 39.28 L-21.62 39.65 L-21.46 40.02 L-21.30 40.40 L-21.13 40.76 L-20.96 41.13 L-20.78 41.50 L-20.60 41.87 L-20.41 42.23 L-20.22 42.59 L-20.03 42.95 L-19.83 43.31 L-19.63 43.67 L-19.42 44.03 L-19.20 44.38 L-18.99 44.73 L-18.76 45.08 L-18.54 45.42 L-18.30 45.76 L-18.07 46.10 L-17.83 46.44 L-17.58 46.77 L-17.33 47.10 L-17.07 47.42 L-16.81 47.74 L-16.55 48.06 L-16.28 48.37 L-16.01 48.68 L-15.73 48.99 L-15.45 49.29 L-15.16 49.58 L-14.87 49.87 L-14.57 50.16 L-14.27 50.44 L-13.97 50.71 L-13.66 50.98 L-13.35 51.25 L-13.03 51.51 L-12.71 51.76 L-12.39 52.01 L-12.06 52.25 L-11.73 52.48 L-11.40 52.71 L-11.06 52.94 L-10.72 53.15 L-10.37 53.36 L-10.02 53.57 L-9.67 53.76 L-9.32 53.95 L-8.96 54.14 L-8.60 54.31 L-8.24 54.48 L-7.87 54.65 L-7.51 54.80 L-7.14 54.95 L-6.76 55.09 L-6.39 55.22 L-6.01 55.35 L-5.63 55.47 L-5.25 55.58 L-4.87 55.68 L-4.49 55.77 L-4.10 55.86 L-3.72 55.94 L-3.33 56.01 L-2.94 56.08 L-2.55 56.13 L-2.16 56.18 L-1.77 56.22 L-1.77 56.21 L-1.79 56.20 L-1.81 56.17 L-1.85 56.13 L-1.89 56.09 L-1.95 56.03 L-2.01 55.96 L-2.09 55.88 L-2.17 55.78 L-2.27 55.68 L-2.37 55.57 L-2.49 55.44 L-2.61 55.30 L-2.74 55.15 L-2.88 54.99 L-3.03 54.82 L-3.18 54.63 L-3.35 54.44 L-3.52 54.22 L-3.70 54.00 L-3.88 53.76 L-4.08 53.51 L-4.27 53.25 L-4.48 52.98 L-4.69 52.69 L-4.90 52.38 L-5.12 52.07 L-5.35 51.73 L-5.58 51.39 L-5.81 51.03 L-6.04 50.66 L-6.27 50.27 L-6.51 49.87 L-6.75 49.46 L-6.98 49.03 L-7.22 48.59 L-7.45 48.14 L-7.69 47.67 L-7.92 47.19 L-8.15 46.70 L-8.37 46.20 L-8.60 45.69 L-8.81 45.16 L-9.02 44.63 L-9.23 44.08 L-9.43 43.53 L-9.62 42.97 L-9.81 42.40 L-9.99 41.82 L-10.16 41.24 L-10.32 40.65 L-10.47 40.06 L-10.61 39.46 L-10.74 38.87 L-10.87 38.27 L-10.98 37.67 L-11.09 37.07 L-11.18 36.47 L-11.26 35.87 L-11.33 35.28 L-11.40 34.68 L-11.45 34.10 L-11.49 33.52 L-11.52 32.94 L-11.54 32.38 L-11.55 31.82 L-11.55 31.27 L-11.54 30.72 L-11.52 30.19 L-11.49 29.67 L-11.46 29.15 L-11.41 28.65 L-11.36 28.16 L-11.29 27.68 L-11.22 27.21 L-11.14 26.76 L-11.06 26.31 L-10.96 25.88 L-10.86 25.46 L-10.75 25.06 L-10.64 24.66 L-10.52 24.28 L-10.39 23.91 L-10.26 23.55 L-10.12 23.20 L-9.98 22.87 L-9.83 22.54 L-9.67 22.23 L-9.51 21.93 L-9.35 21.63 L-9.18 21.35 L-9.01 21.08 L-8.84 20.82 L-8.66 20.57 L-8.48 20.33 L-8.29 20.09 L-8.10 19.87 L-7.91 19.65 L-7.72 19.45 L-7.53 19.25 L-7.33 19.06 L-7.13 18.87 L-6.93 18.70 L-6.73 18.53 L-6.53 18.38 L-6.33 18.23 L-6.13 18.08 L-5.93 17.95 L-5.73 17.82 L-5.53 17.70 L-5.33 17.59 L-5.13 17.49 L-4.94 17.39 L-4.74 17.31 L-4.55 17.23 L-4.35 17.16 L-4.16 17.10 L-3.98 17.04 L-3.79 17.00 L-3.60 16.96 L-3.42 16.94 L-3.24 16.92 L-3.06 16.91 L-2.89 16.90 L-2.71 16.91 L-2.54 16.92 L-2.37 16.95 L-2.21 16.97 L-2.04 17.01 L-1.88 17.06 L-1.72 17.11 L-1.57 17.16 L-1.42 17.23 L-1.27 17.29 L-1.13 17.37 L-0.99 17.44 L-0.86 17.52 L-0.74 17.60 L-0.64 17.68 L-0.56 17.74"/>
<path d="M-15.08 9.35 L-15.23 9.30 L-15.38 9.24 L-15.53 9.18 L-15.68 9.12 L-15.74 9.02 L-15.72 8.86 L-15.69 8.70 L-15.67 8.54 L-15.64 8.39 L-15.63 8.29 L-15.61 8.16 L-15.61 8.01 L-15.60 7.86 L-15.60 7.71 L-15.61 7.55 L-15.63 7.39 L-15.65 7.22 L-15.68 7.06 L-15.71 6.90 L-15.75 6.74 L-15.80 6.58 L-15.86 6.42 L-15.93 6.26 L-16.00 6.10 L-16.08 5.95 L-16.17 5.80 L-16.27 5.65 L-16.38 5.50 L-16.49 5.36 L-16.62 5.22 L-16.75 5.08 L-16.89 4.94 L-17.04 4.81 L-17.19 4.68 L-17.36 4.55 L-17.53 4.42 L-17.71 4.30 L-17.90 4.18 L-18.10 4.06 L-18.30 3.95 L-18.51 3.84 L-18.73 3.73 L-18.95 3.63 L-19.18 3.53 L-19.42 3.44 L-19.66 3.35 L-19.91 3.26 L-20.17 3.18 L-20.43 3.11 L-20.70 3.04 L-20.98 2.97 L-21.26 2.92 L-21.55 2.87 L-21.84 2.82 L-22.14 2.79 L-22.45 2.76 L-22.76 2.74 L-23.08 2.72 L-23.41 2.72 L-23.75 2.72 L-24.09 2.74 L-24.43 2.76 L-24.79 2.79 L-25.15 2.84 L-25.52 2.89 L-25.90 2.95 L-26.28 3.03 L-26.68 3.12 L-27.08 3.22 L-27.48 3.33 L-27.90 3.45 L-28.32 3.58 L-28.74 3.73 L-29.18 3.89 L-29.62 4.06 L-30.07 4.25 L-30.52 4.44 L-30.98 4.66 L-31.44 4.88 L-31.91 5.12 L-32.38 5.37 L-32.85 5.63 L-33.33 5.91 L-33.81 6.20 L-34.29 6.50 L-34.77 6.81 L-35.25 7.14 L-35.74 7.47 L-36.22 7.82 L-36.69 8.18 L-37.17 8.55 L-37.64 8.93 L-38.11 9.32 L-38.57 9.72 L-39.03 10.13 L-39.48 10.54 L-39.93 10.96 L-40.36 11.39 L-40.79 11.82 L-41.21 12.26 L-41.62 12.70 L-42.02 13.15 L-42.41 13.60 L-42.79 14.05 L-43.16 14.50 L-43.52 14.95 L-43.86 15.40 L-44.20 15.85 L-44.52 16.29 L-44.83 16.74 L-45.13 17.18 L-45.42 17.61 L-45.69 18.04 L-45.95 18.47 L-46.21 18.89 L-46.45 19.30 L-46.67 19.70 L-46.89 20.10 L-47.10 20.49 L-47.29 20.87 L-47.48 21.24 L-47.65 21.60 L-47.82 21.94 L-47.97 22.28 L-48.12 22.61 L-48.25 22.92 L-48.38 23.23 L-48.50 23.52 L-48.61 23.80 L-48.72 24.07 L-48.82 24.32 L-48.90 24.56 L-48.99 24.79 L-49.06 25.00 L-49.13 25.21 L-49.20 25.39 L-49.26 25.57 L-49.31 25.73 L-49.36 25.88 L-49.40 26.01 L-49.44 26.13 L-49.47 26.23 L-49.50 26.33 L-49.52 26.40 L-49.54 26.47 L-49.55 26.52 L-49.56 26.55 L-49.57 26.57 L-49.57 26.58 L-49.40 26.94 L-49.23 27.29 L-49.04 27.64 L-48.86 27.98 L-48.66 28.32 L-48.46 28.66 L-48.25 28.99 L-48.03 29.32 L-47.80 29.64 L-47.80 29.64 L-47.78 29.65 L-47.74 29.66 L-47.69 29.67 L-47.63 29.68 L-47.55 29.70 L-47.45 29.72 L-47.35 29.75 L-47.22 29.78 L-47.09 29.81 L-46.94 29.84 L-46.77 29.87 L-46.59 29.91 L-46.40 29.95 L-46.19 29.99 L-45.96 30.03 L-45.72 30.07 L-45.47 30.12 L-45.20 30.16 L-44.92 30.20 L-44.62 30.25 L-44.31 30.29 L-43.98 30.33 L-43.64 30.37 L-43.28 30.40 L-42.91 30.44 L-42.53 30.47 L-42.13 30.50 L-41.72 30.52 L-41.29 30.54 L-40.85 30.56 L-40.40 30.57 L-39.94 30.57 L-39.46 30.57 L-38.97 30.56 L-38.47 30.55 L-37.96 30.52 L-37.44 30.49 L-36.91 30.46 L-36.37 30.41 L-35.82 30.35 L-35.27 30.29 L-34.70 30.21 L-34.14 30.13 L-33.56 30.03 L-32.98 29.93 L-32.40 29.82 L-31.81 29.69 L-31.22 29.56 L-30.64 29.41 L-30.05 29.26 L-29.46 29.10 L-28.87 28.92 L-28.29 28.74 L-27.71 28.55 L-27.13 28.34 L-26.56 28.13 L-25.99 27.91 L-25.43 27.69 L-24.88 27.45 L-24.34 27.21 L-23.81 26.96 L-23.28 26.71 L-22.77 26.45 L-22.27 26.18 L-21.78 25.91 L-21.30 25.63 L-20.84 25.36 L-20.38 25.07 L-19.94 24.79 L-19.52 24.50 L-19.11 24.21 L-18.71 23.91 L-18.33 23.62 L-17.96 23.32 L-17.60 23.03 L-17.26 22.73 L-16.93 22.43 L-16.62 22.14 L-16.32 21.84 L-16.04 21.54 L-15.77 21.25 L-15.51 20.95 L-15.26 20.66 L-15.03 20.36 L-14.81 20.07 L-14.61 19.78 L-14.41 19.49 L-14.23 19.20 L-14.06 18.92 L-13.90 18.63 L-13.75 18.35 L-13.61 18.06 L-13.48 17.78 L-13.36 17.50 L-13.26 17.23 L-13.16 16.95 L-13.06 16.68 L-12.98 16.41 L-12.91 16.14 L-12.84 15.88 L-12.78 15.61 L-12.73 15.35 L-12.69 15.10 L-12.65 14.85 L-12.62 14.60 L-12.60 14.35 L-12.58 14.11 L-12.57 13.87 L-12.57 13.64 L-12.57 13.41 L-12.58 13.19 L-12.60 12.97 L-12.62 12.76 L-12.65 12.55 L-12.68 12.35 L-12.72 12.16 L-12.77 11.97 L-12.83 11.78 L-12.89 11.60 L-12.96 11.43 L-13.03 11.27 L-13.11 11.11 L-13.20 10.95 L-13.29 10.80 L-13.39 10.66 L-13.49 10.53 L-13.60 10.40 L-13.71 10.27 L-13.83 10.16 L-13.95 10.05 L-14.08 9.94 L-14.21 9.84 L-14.34 9.75 L-14.48 9.66 L-14.61 9.58 L-14.74 9.51 L-14.87 9.44 L-14.99 9.39 L-15.08 9.35"/>
<path d="M-15.64 8.39 L-15.61 8.23 L-15.58 8.08 L-15.55 7.92 L-15.52 7.77 L-15.49 7.62 L-15.45 7.47 L-15.42 7.32 L-15.38 7.17 L-15.35 7.03 L-15.31 6.88 L-15.27 6.74 L-15.23 6.59 L-15.20 6.45 L-15.16 6.31 L-15.12 6.17 L-15.07 6.03 L-15.03 5.89 L-14.99 5.76 L-14.95 5.62 L-14.91 5.49 L-14.87 5.35 L-14.82 5.22 L-14.78 5.09 L-14.74 4.96 L-14.70 4.83 L-14.65 4.71 L-14.61 4.58 L-14.57 4.45 L-14.53 4.33 L-14.49 4.21 L-14.45 4.09 L-14.41 3.97 L-14.36 3.85 L-14.32 3.73 L-14.29 3.61 L-14.25 3.50 L-14.21 3.38 L-14.17 3.27 L-14.13 3.16 L-14.10 3.05 L-14.06 2.94 L-14.03 2.83 L-13.99 2.72 L-13.96 2.61 L-13.93 2.51 L-13.90 2.40 L-13.87 2.30 L-13.84 2.19 L-13.81 2.09 L-13.78 1.99 L-13.75 1.88 L-13.73 1.78 L-13.71 1.68 L-13.68 1.58 L-13.66 1.48 L-13.64 1.39 L-13.62 1.29 L-13.61 1.19 L-13.59 1.09 L-13.57 1.00 L-13.56 0.90 L-13.55 0.80 L-13.54 0.71 L-13.53 0.61 L-13.52 0.52 L-13.51 0.42 L-13.51 0.33 L-13.50 0.24 L-13.50 0.14 L-13.50 0.05 L-13.50 -0.05 L-13.50 -0.14 L-13.50 -0.24 L-13.51 -0.33 L-13.51 -0.42 L-13.52 -0.52 L-13.53 -0.61 L-13.54 -0.71 L-13.55 -0.80 L-13.56 -0.90 L-13.57 -1.00 L-13.59 -1.09 L-13.61 -1.19 L-13.62 -1.29 L-13.64 -1.39 L-13.66 -1.48 L-13.68 -1.58 L-13.71 -1.68 L-13.73 -1.78 L-13.75 -1.88 L-13.78 -1.99 L-13.81 -2.09 L-13.84 -2.19 L-13.87 -2.30 L-13.90 -2.40 L-13.93 -2.51 L-13.96 -2.61 L-13.99 -2.72 L-14.03 -2.83 L-14.06 -2.94 L-14.10 -3.05 L-14.13 -3.16 L-14.17 -3.27 L-14.21 -3.38 L-14.25 -3.50 L-14.29 -3.61 L-14.32 -3.73 L-14.36 -3.85 L-14.41 -3.97 L-14.45 -4.09 L-14.49 -4.21 L-14.53 -4.33 L-14.57 -4.45 L-14.61 -4.58 L-14.65 -4.71 L-14.70 -4.83 L-14.74 -4.96 L-14.78 -5.09 L-14.82 -5.22 L-14.87 -5.35 L-14.91 -5.49 L-14.95 -5.62 L-14.99 -5.76 L-15.03 -5.89 L-15.07 -6.03 L-15.12 -6.17 L-15.16 -6.31 L-15.20 -6.45 L-15.23 -6.59 L-15.27 -6.74 L-15.31 -6.88 L-15.35 -7.03 L-15.38 -7.17 L-15.42 -7.32 L-15.45 -7.47 L-15.49 -7.62 L-15.52 -7.77 L-15.55 -7.92 L-15.58 -8.08 L-15.61 -8.23 L-15.64 -8.39 L-15.63 -8.29 L-15.61 -8.16 L-15.61 -8.01 L-15.60 -7.86 L-15.60 -7.71 L-15.61 -7.55 L-15.63 -7.39 L-15.65 -7.22 L-15.68 -7.06 L-15.71 -6.90 L-15.75 -6.74 L-15.80 -6.58 L-15.86 -6.42 L-15.93 -6.26 L-16.00 -6.10 L-16.08 -5.95 L-16.17 -5.80 L-16.27 -5.65 L-16.38 -5.50 L-16.49 -5.36 L-16.62 -5.22 L-16.75 -5.08 L-16.89 -4.94 L-17.04 -4.81 L-17.19 -4.68 L-17.36 -4.55 L-17.53 -4.42 L-17.71 -4.30 L-17.90 -4.18 L-18.10 -4.06 L-18.30 -3.95 L-18.51 -3.84 L-18.73 -3.73 L-18.95 -3.63 L-19.18 -3.53 L-19.42 -3.44 L-19.66 -3.35 L-19.91 -3.26 L-20.17 -3.18 L-20.43 -3.11 L-20.70 -3.04 L-20.98 -2.97 L-21.26 -2.92 L-21.55 -2.87 L-21.84 -2.82 L-22.14 -2.79 L-22.45 -2.76 L-22.76 -2.74 L-23.08 -2.72 L-23.41 -2.72 L-23.75 -2.72 L-24.09 -2.74 L-24.43 -2.76 L-24.79 -2.79 L-25.15 -2.84 L-25.52 -2.89 L-25.90 -2.95 L-26.28 -3.03 L-26.68 -3.12 L-27.08 -3.22 L-27.48 -3.33 L-27.90 -3.45 L-28.32 -3.58 L-28.74 -3.73 L-29.18 -3.89 L-29.62 -4.06 L-30.07 -4.25 L-30.52 -4.44 L-30.98 -4.66 L-31.44 -4.88 L-31.91 -5.12 L-32.38 -5.37 L-32.85 -5.63 L-33.33 -5.91 L-33.81 -6.20 L-34.29 -6.50 L-34.77 -6.81 L-35.25 -7.14 L-35.74 -7.47 L-36.22 -7.82 L-36.69 -8.18 L-37.17 -8.55 L-37.64 -8.93 L-38.11 -9.32 L-38.57 -9.72 L-39.03 -10.13 L-39.48 -10.54 L-39.93 -10.96 L-40.36 -11.39 L-40.79 -11.82 L-41.21 -12.26 L-41.62 -12.70 L-42.02 -13.15 L-42.41 -13.60 L-42.79 -14.05 L-43.16 -14.50 L-43.52 -14.95 L-43.86 -15.40 L-44.20 -15.85 L-44.52 -16.29 L-44.83 -16.74 L-45.13 -17.18 L-45.42 -17.61 L-45.69 -18.04 L-45.95 -18.47 L-46.21 -18.89 L-46.45 -19.30 L-46.67 -19.70 L-46.89 -20.10 L-47.10 -20.49 L-47.29 -20.87 L-47.48 -21.24 L-47.65 -21.60 L-47.82 -21.94 L-47.97 -22.28 L-48.12 -22.61 L-48.25 -22.92 L-48.38 -23.23 L-48.50 -23.52 L-48.61 -23.80 L-48.72 -24.07 L-48.82 -24.32 L-48.90 -24.56 L-48.99 -24.79 L-49.06 -25.00 L-49.13 -25.21 L-49.20 -25.39 L-49.26 -25.57 L-49.31 -25.73 L-49.36 -25.88 L-49.40 -26.01 L-49.44 -26.13 L-49.47 -26.23 L-49.50 -26.33 L-49.52 -26.40 L-49.54 -26.47 L-49.55 -26.52 L-49.56 -26.55 L-49.57 -26.57 L-49.57 -26.58 L-49.73 -26.22 L-49.89 -25.86 L-50.03 -25.49 L-50.17 -25.12 L-50.30 -24.75 L-50.43 -24.38 L-50.55 -24.00 L-50.65 -23.62 L-50.76 -23.24 L-50.85 -22.85 L-50.94 -22.47 L-51.02 -22.08 L-51.09 -21.69 L-51.16 -21.29 L-51.21 -20.90 L-51.26 -20.50 L-51.30 -20.11 L-51.34 -19.71 L-51.37 -19.31 L-51.39 -18.91 L-51.40 -18.50 L-51.40 -18.10 L-51.40 -17.70 L-51.39 -17.29 L-51.37 -16.89 L-51.35 -16.49 L-51.32 -16.08 L-51.28 -15.68 L-51.23 -15.27 L-51.18 -14.87 L-51.12 -14.47 L-51.06 -14.06 L-50.98 -13.66 L-50.90 -13.26 L-50.82 -12.86 L-50.72 -12.46 L-50.62 -12.06 L-50.52 -11.66 L-50.41 -11.27 L-50.29 -10.87 L-50.16 -10.48 L-50.03 -10.09 L-49.90 -9.70 L-49.75 -9.31 L-49.60 -8.93 L-49.45 -8.54 L-49.29 -8.16 L-49.13 -7.78 L-48.96 -7.40 L-48.78 -7.03 L-48.60 -6.66 L-48.42 -6.29 L-48.23 -5.92 L-48.03 -5.56 L-47.84 -5.20 L-47.63 -4.84 L-47.43 -4.48 L-47.21 -4.13 L-47.00 -3.78 L-46.78 -3.44 L-46.56 -3.09 L-46.33 -2.75 L-46.10 -2.42 L-45.87 -2.08 L-45.63 -1.75 L-45.39 -1.43 L-45.15 -1.10 L-44.91 -0.78 L-44.66 -0.47 L-44.41 -0.16 L-44.41 0.16 L-44.66 0.47 L-44.91 0.78 L-45.15 1.10 L-45.39 1.43 L-45.63 1.75 L-45.87 2.08 L-46.10 2.42 L-46.33 2.75 L-46.56 3.09 L-46.78 3.44 L-47.00 3.78 L-47.21 4.13 L-47.43 4.48 L-47.63 4.84 L-47.84 5.20 L-48.03 5.56 L-48.23 5.92 L-48.42 6.29 L-48.60 6.66 L-48.78 7.03 L-48.96 7.40 L-49.13 7.78 L-49.29 8.16 L-49.45 8.54 L-49.60 8.93 L-49.75 9.31 L-49.90 9.70 L-50.03 10.09 L-50.16 10.48 L-50.29 10.87 L-50.41 11.27 L-50.52 11.66 L-50.62 12.06 L-50.72 12.46 L-50.82 12.86 L-50.90 13.26 L-50.98 13.66 L-51.06 14.06 L-51.12 14.47 L-51.18 14.87 L-51.23 15.27 L-51.28 15.68 L-51.32 16.08 L-51.35 16.49 L-51.37 16.89 L-51.39 17.29 L-51.40 17.70 L-51.40 18.10 L-51.40 18.50 L-51.39 18.91 L-51.37 19.31 L-51.34 19.71 L-51.30 20.11 L-51.26 20.50 L-51.21 20.90 L-51.16 21.29 L-51.09 21.69 L-51.02 22.08 L-50.94 22.47 L-50.85 22.85 L-50.76 23.24 L-50.65 23.62 L-50.55 24.00 L-50.43 24.38 L-50.30 24.75 L-50.17 25.12 L-50.03 25.49 L-49.89 25.86 L-49.73 26.22 L-49.57 26.58 L-49.57 26.57 L-49.56 26.55 L-49.55 26.52 L-49.54 26.47 L-49.52 26.40 L-49.50 26.33 L-49.47 26.23 L-49.44 26.13 L-49.40 26.01 L-49.36 25.88 L-49.31 25.73 L-49.26 25.57 L-49.20 25.39 L-49.13 25.21 L-49.06 25.00 L-48.99 24.79 L-48.90 24.56 L-48.82 24.32 L-48.72 24.07 L-48.61 23.80 L-48.50 23.52 L-48.38 23.23 L-48.25 22.92 L-48.12 22.61 L-47.97 22.28 L-47.82 21.94 L-47.65 21.60 L-47.48 21.24 L-47.29 20.87 L-47.10 20.49 L-46.89 20.10 L-46.67 19.70 L-46.45 19.30 L-46.21 18.89 L-45.95 18.47 L-45.69 18.04 L-45.42 17.61 L-45.13 17.18 L-44.83 16.74 L-44.52 16.29 L-44.20 15.85 L-43.86 15.40 L-43.52 14.95 L-43.16 14.50 L-42.79 14.05 L-42.41 13.60 L-42.02 13.15 L-41.62 12.70 L-41.21 12.26 L-40.79 11.82 L-40.36 11.39 L-39.93 10.96 L-39.48 10.54 L-39.03 10.13 L-38.57 9.72 L-38.11 9.32 L-37.64 8.93 L-37.17 8.55 L-36.69 8.18 L-36.22 7.82 L-35.74 7.47 L-35.25 7.14 L-34.77 6.81 L-34.29 6.50 L-33.81 6.20 L-33.33 5.91 L-32.85 5.63 L-32.38 5.37 L-31.91 5.12 L-31.44 4.88 L-30.98 4.66 L-30.52 4.44 L-30.07 4.25 L-29.62 4.06 L-29.18 3.89 L-28.74 3.73 L-28.32 3.58 L-27.90 3.45 L-27.48 3.33 L-27.08 3.22 L-26.68 3.12 L-26.28 3.03 L-25.90 2.95 L-25.52 2.89 L-25.15 2.84 L-24.79 2.79 L-24.43 2.76 L-24.09 2.74 L-23.75 2.72 L-23.41 2.72 L-23.08 2.72 L-22.76 2.74 L-22.45 2.76 L-22.14 2.79 L-21.84 2.82 L-21.55 2.87 L-21.26 2.92 L-20.98 2.97 L-20.70 3.04 L-20.43 3.11 L-20.17 3.18 L-19.91 3.26 L-19.66 3.35 L-19.42 3.44 L-19.18 3.53 L-18.95 3.63 L-18.73 3.73 L-18.51 3.84 L-18.30 3.95 L-18.10 4.06 L-17.90 4.18 L-17.71 4.30 L-17.53 4.42 L-17.36 4.55 L-17.19 4.68 L-17.04 4.81 L-16.89 4.94 L-16.75 5.08 L-16.62 5.22 L-16.49 5.36 L-16.38 5.50 L-16.27 5.65 L-16.17 5.80 L-16.08 5.95 L-16.00 6.10 L-15.93 6.26 L-15.86 6.42 L-15.80 6.58 L-15.75 6.74 L-15.71 6.90 L-15.68 7.06 L-15.65 7.22 L-15.63 7.39 L-15.61 7.55 L-15.60 7.71 L-15.60 7.86 L-15.61 8.01 L-15.61 8.16 L-15.63 8.29 L-15.64 8.39"/>
<path d="M-15.64 -8.39 L-15.67 -8.54 L-15.69 -8.70 L-15.72 -8.86 L-15.74 -9.02 L-15.68 -9.12 L-15.53 -9.18 L-15.38 -9.24 L-15.23 -9.30 L-15.08 -9.35 L-14.99 -9.39 L-14.87 -9.44 L-14.74 -9.51 L-14.61 -9.58 L-14.48 -9.66 L-14.34 -9.75 L-14.21 -9.84 L-14.08 -9.94 L-13.95 -10.05 L-13.83 -10.16 L-13.71 -10.27 L-13.60 -10.40 L-13.49 -10.53 L-13.39 -10.66 L-13.29 -10.80 L-13.20 -10.95 L-13.11 -11.11 L-13.03 -11.27 L-12.96 -11.43 L-12.89 -11.60 L-12.83 -11.78 L-12.77 -11.97 L-12.72 -12.16 L-12.68 -12.35 L-12.65 -12.55 L-12.62 -12.76 L-12.60 -12.97 L-12.58 -13.19 L-12.57 -13.41 L-12.57 -13.64 L-12.57 -13.87 L-12.58 -14.11 L-12.60 -14.35 L-12.62 -14.60 L-12.65 -14.85 L-12.69 -15.10 L-12.73 -15.35 L-12.78 -15.61 L-12.84 -15.88 L-12.91 -16.14 L-12.98 -16.41 L-13.06 -16.68 L-13.16 -16.95 L-13.26 -17.23 L-13.36 -17.50 L-13.48 -17.78 L-13.61 -18.06 L-13.75 -18.35 L-13.90 -18.63 L-14.06 -18.92 L-14.23 -19.20 L-14.41 -19.49 L-14.61 -19.78 L-14.81 -20.07 L-15.03 -20.36 L-15.26 -20.66 L-15.51 -20.95 L-15.77 -21.25 L-16.04 -21.54 L-16.32 -21.84 L-16.62 -22.14 L-16.93 -22.43 L-17.26 -22.73 L-17.60 -23.03 L-17.96 -23.32 L-18.33 -23.62 L-18.71 -23.91 L-19.11 -24.21 L-19.52 -24.50 L-19.94 -24.79 L-20.38 -25.07 L-20.84 -25.36 L-21.30 -25.63 L-21.78 -25.91 L-22.27 -26.18 L-22.77 -26.45 L-23.28 -26.71 L-23.81 -26.96 L-24.34 -27.21 L-24.88 -27.45 L-25.43 -27.69 L-25.99 -27.91 L-26.56 -28.13 L-27.13 -28.34 L-27.71 -28.55 L-28.29 -28.74 L-28.87 -28.92 L-29.46 -29.10 L-30.05 -29.26 L-30.64 -29.41 L-31.22 -29.56 L-31.81 -29.69 L-32.40 -29.82 L-32.98 -29.93 L-33.56 -30.03 L-34.14 -30.13 L-34.70 -30.21 L-35.27 -30.29 L-35.82 -30.35 L-36.37 -30.41 L-36.91 -30.46 L-37.44 -30.49 L-37.96 -30.52 L-38.47 -30.55 L-38.97 -30.56 L-39.46 -30.57 L-39.94 -30.57 L-40.40 -30.57 L-40.85 -30.56 L-41.29 -30.54 L-41.72 -30.52 L-42.13 -30.50 L-42.53 -30.47 L-42.91 -30.44 L-43.28 -30.40 L-43.64 -30.37 L-43.98 -30.33 L-44.31 -30.29 L-44.62 -30.25 L-44.92 -30.20 L-45.20 -30.16 L-45.47 -30.12 L-45.72 -30.07 L-45.96 -30.03 L-46.19 -29.99 L-46.40 -29.95 L-46.59 -29.91 L-46.77 -29.87 L-46.94 -29.84 L-47.09 -29.81 L-47.22 -29.78 L-47.35 -29.75 L-47.45 -29.72 L-47.55 -29.70 L-47.63 -29.68 L-47.69 -29.67 L-47.74 -29.66 L-47.78 -29.65 L-47.80 -29.64 L-47.80 -29.64 L-48.03 -29.32 L-48.25 -28.99 L-48.46 -28.66 L-48.66 -28.32 L-48.86 -27.98 L-49.04 -27.64 L-49.23 -27.29 L-49.40 -26.94 L-49.57 -26.58 L-49.57 -26.57 L-49.56 -26.55 L-49.55 -26.52 L-49.54 -26.47 L-49.52 -26.40 L-49.50 -26.33 L-49.47 -26.23 L-49.44 -26.13 L-49.40 -26.01 L-49.36 -25.88 L-49.31 -25.73 L-49.26 -25.57 L-49.20 -25.39 L-49.13 -25.21 L-49.06 -25.00 L-48.99 -24.79 L-48.90 -24.56 L-48.82 -24.32 L-48.72 -24.07 L-48.61 -23.80 L-48.50 -23.52 L-48.38 -23.23 L-48.25 -22.92 L-48.12 -22.61 L-47.97 -22.28 L-47.82 -21.94 L-47.65 -21.60 L-47.48 -21.24 L-47.29 -20.87 L-47.10 -20.49 L-46.89 -20.10 L-46.67 -19.70 L-46.45 -19.30 L-46.21 -18.89 L-45.95 -18.47 L-45.69 -18.04 L-45.42 -17.61 L-45.13 -17.18 L-44.83 -16.74 L-44.52 -16.29 L-44.20 -15.85 L-43.86 -15.40 L-43.52 -14.95 L-43.16 -14.50 L-42.79 -14.05 L-42.41 -13.60 L-42.02 -13.15 L-41.62 -12.70 L-41.21 -12.26 L-40.79 -11.82 L-40.36 -11.39 L-39.93 -10.96 L-39.48 -10.54 L-39.03 -10.13 L-38.57 -9.72 L-38.11 -9.32 L-37.64 -8.93 L-37.17 -8.55 L-36.69 -8.18 L-36.22 -7.82 L-35.74 -7.47 L-35.25 -7.14 L-34.77 -6.81 L-34.29 -6.50 L-33.81 -6.20 L-33.33 -5.91 L-32.85 -5.63 L-32.38 -5.37 L-31.91 -5.12 L-31.44 -4.88 L-30.98 -4.66 L-30.52 -4.44 L-30.07 -4.25 L-29.62 -4.06 L-29.18 -3.89 L-28.74 -3.73 L-28.32 -3.58 L-27.90 -3.45 L-27.48 -3.33 L-27.08 -3.22 L-26.68 -3.12 L-26.28 -3.03 L-25.90 -2.95 L-25.52 -2.89 L-25.15 -2.84 L-24.79 -2.79 L-24.43 -2.76 L-24.09 -2.74 L-23.75 -2.72 L-23.41 -2.72 L-23.08 -2.72 L-22.76 -2.74 L-22.45 -2.76 L-22.14 -2.79 L-21.84 -2.82 L-21.55 -2.87 L-21.26 -2.92 L-20.98 -2.97 L-20.70 -3.04 L-20.43 -3.11 L-20.17 -3.18 L-19.91 -3.26 L-19.66 -3.35 L-19.42 -3.44 L-19.18 -3.53 L-18.95 -3.63 L-18.73 -3.73 L-18.51 -3.84 L-18.30 -3.95 L-18.10 -4.06 L-17.90 -4.18 L-17.71 -4.30 L-17.53 -4.42 L-17.36 -4.55 L-17.19 -4.68 L-17.04 -4.81 L-16.89 -4.94 L-16.75 -5.08 L-16.62 -5.22 L-16.49 -5.36 L-16.38 -5.50 L-16.27 -5.65 L-16.17 -5.80 L-16.08 -5.95 L-16.00 -6.10 L-15.93 -6.26 L-15.86 -6.42 L-15.80 -6.58 L-15.75 -6.74 L-15.71 -6.90 L-15.68 -7.06 L-15.65 -7.22 L-15.63 -7.39 L-15.61 -7.55 L-15.60 -7.71 L-15.60 -7.86 L-15.61 -8.01 L-15.61 -8.16 L-15.63 -8.29 L-15.64 -8.39"/>
<path d="M-15.08 -9.35 L-14.94 -9.41 L-14.79 -9.46 L-14.64 -9.51 L-14.49 -9.56 L-14.34 -9.60 L-14.20 -9.65 L-14.05 -9.69 L-13.90 -9.74 L-13.76 -9.78 L-13.61 -9.82 L-13.47 -9.86 L-13.33 -9.90 L-13.18 -9.93 L-13.04 -9.97 L-12.90 -10.01 L-12.76 -10.04 L-12.62 -10.07 L-12.48 -10.11 L-12.34 -10.14 L-12.20 -10.17 L-12.07 -10.20 L-11.93 -10.23 L-11.80 -10.26 L-11.67 -10.28 L-11.53 -10.31 L-11.40 -10.34 L-11.27 -10.37 L-11.14 -10.39 L-11.02 -10.42 L-10.89 -10.44 L-10.76 -10.47 L-10.64 -10.49 L-10.52 -10.52 L-10.39 -10.54 L-10.27 -10.56 L-10.15 -10.59 L-10.04 -10.61 L-9.92 -10.64 L-9.80 -10.66 L-9.69 -10.68 L-9.57 -10.71 L-9.46 -10.73 L-9.35 -10.76 L-9.24 -10.78 L-9.13 -10.81 L-9.03 -10.83 L-8.92 -10.86 L-8.82 -10.89 L-8.71 -10.91 L-8.61 -10.94 L-8.51 -10.97 L-8.41 -11.00 L-8.31 -11.03 L-8.21 -11.06 L-8.12 -11.09 L-8.02 -11.12 L-7.93 -11.15 L-7.83 -11.19 L-7.74 -11.22 L-7.65 -11.26 L-7.56 -11.29 L-7.47 -11.33 L-7.38 -11.37 L-7.30 -11.41 L-7.21 -11.45 L-7.12 -11.49 L-7.04 -11.53 L-6.95 -11.57 L-6.87 -11.62 L-6.79 -11.67 L-6.71 -11.71 L-6.63 -11.76 L-6.55 -11.81 L-6.47 -11.86 L-6.39 -11.91 L-6.31 -11.97 L-6.23 -12.02 L-6.15 -12.08 L-6.08 -12.13 L-6.00 -12.19 L-5.92 -12.25 L-5.85 -12.31 L-5.77 -12.38 L-5.70 -12.44 L-5.62 -12.51 L-5.55 -12.57 L-5.47 -12.64 L-5.40 -12.71 L-5.32 -12.78 L-5.25 -12.85 L-5.17 -12.93 L-5.10 -13.00 L-5.02 -13.08 L-4.94 -13.16 L-4.87 -13.23 L-4.79 -13.31 L-4.72 -13.40 L-4.64 -13.48 L-4.56 -13.56 L-4.49 -13.65 L-4.41 -13.73 L-4.33 -13.82 L-4.25 -13.91 L-4.17 -14.00 L-4.09 -14.09 L-4.01 -14.18 L-3.93 -14.27 L-3.85 -14.36 L-3.77 -14.46 L-3.68 -14.55 L-3.60 -14.65 L-3.51 -14.75 L-3.43 -14.85 L-3.34 -14.94 L-3.25 -15.04 L-3.16 -15.14 L-3.07 -15.25 L-2.98 -15.35 L-2.89 -15.45 L-2.80 -15.55 L-2.70 -15.65 L-2.61 -15.76 L-2.51 -15.86 L-2.41 -15.97 L-2.32 -16.07 L-2.22 -16.17 L-2.11 -16.28 L-2.01 -16.38 L-1.91 -16.49 L-1.80 -16.59 L-1.70 -16.70 L-1.59 -16.81 L-1.48 -16.91 L-1.37 -17.01 L-1.26 -17.12 L-1.14 -17.22 L-1.03 -17.33 L-0.91 -17.43 L-0.80 -17.53 L-0.68 -17.64 L-0.56 -17.74 L-0.64 -17.68 L-0.74 -17.60 L-0.86 -17.52 L-0.99 -17.44 L-1.13 -17.37 L-1.27 -17.29 L-1.42 -17.23 L-1.57 -17.16 L-1.72 -17.11 L-1.88 -17.06 L-2.04 -17.01 L-2.21 -16.97 L-2.37 -16.95 L-2.54 -16.92 L-2.71 -16.91 L-2.89 -16.90 L-3.06 -16.91 L-3.24 -16.92 L-3.42 -16.94 L-3.60 -16.96 L-3.79 -17.00 L-3.98 -17.04 L-4.16 -17.10 L-4.35 -17.16 L-4.55 -17.23 L-4.74 -17.31 L-4.94 -17.39 L-5.13 -17.49 L-5.33 -17.59 L-5.53 -17.70 L-5.73 -17.82 L-5.93 -17.95 L-6.13 -18.08 L-6.33 -18.23 L-6.53 -18.38 L-6.73 -18.53 L-6.93 -18.70 L-7.13 -18.87 L-7.33 -19.06 L-7.53 -19.25 L-7.72 -19.45 L-7.91 -19.65 L-8.10 -19.87 L-8.29 -20.09 L-8.48 -20.33 L-8.66 -20.57 L-8.84 -20.82 L-9.01 -21.08 L-9.18 -21.35 L-9.35 -21.63 L-9.51 -21.93 L-9.67 -22.23 L-9.83 -22.54 L-9.98 -22.87 L-10.12 -23.20 L-10.26 -23.55 L-10.39 -23.91 L-10.52 -24.28 L-10.64 -24.66 L-10.75 -25.06 L-10.86 -25.46 L-10.96 -25.88 L-11.06 -26.31 L-11.14 -26.76 L-11.22 -27.21 L-11.29 -27.68 L-11.36 -28.16 L-11.41 -28.65 L-11.46 -29.15 L-11.49 -29.67 L-11.52 -30.19 L-11.54 -30.72 L-11.55 -31.27 L-11.55 -31.82 L-11.54 -32.38 L-11.52 -32.94 L-11.49 -33.52 L-11.45 -34.10 L-11.40 -34.68 L-11.33 -35.28 L-11.26 -35.87 L-11.18 -36.47 L-11.09 -37.07 L-10.98 -37.67 L-10.87 -38.27 L-10.74 -38.87 L-10.61 -39.46 L-10.47 -40.06 L-10.32 -40.65 L-10.16 -41.24 L-9.99 -41.82 L-9.81 -42.40 L-9.62 -42.97 L-9.43 -43.53 L-9.23 -44.08 L-9.02 -44.63 L-8.81 -45.16 L-8.60 -45.69 L-8.37 -46.20 L-8.15 -46.70 L-7.92 -47.19 L-7.69 -47.67 L-7.45 -48.14 L-7.22 -48.59 L-6.98 -49.03 L-6.75 -49.46 L-6.51 -49.87 L-6.27 -50.27 L-6.04 -50.66 L-5.81 -51.03 L-5.58 -51.39 L-5.35 -51.73 L-5.12 -52.07 L-4.90 -52.38 L-4.69 -52.69 L-4.48 -52.98 L-4.27 -53.25 L-4.08 -53.51 L-3.88 -53.76 L-3.70 -54.00 L-3.52 -54.22 L-3.35 -54.44 L-3.18 -54.63 L-3.03 -54.82 L-2.88 -54.99 L-2.74 -55.15 L-2.61 -55.30 L-2.49 -55.44 L-2.37 -55.57 L-2.27 -55.68 L-2.17 -55.78 L-2.09 -55.88 L-2.01 -55.96 L-1.95 -56.03 L-1.89 -56.09 L-1.85 -56.13 L-1.81 -56.17 L-1.79 -56.20 L-1.77 -56.21 L-1.77 -56.22 L-2.16 -56.18 L-2.55 -56.13 L-2.94 -56.08 L-3.33 -56.01 L-3.72 -55.94 L-4.10 -55.86 L-4.49 -55.77 L-4.87 -55.68 L-5.25 -55.58 L-5.63 -55.47 L-6.01 -55.35 L-6.39 -55.22 L-6.76 -55.09 L-7.14 -54.95 L-7.51 -54.80 L-7.87 -54.65 L-8.24 -54.48 L-8.60 -54.31 L-8.96 -54.14 L-9.32 -53.95 L-9.67 -53.76 L-10.02 -53.57 L-10.37 -53.36 L-10.72 -53.15 L-11.06 -52.94 L-11.40 -52.71 L-11.73 -52.48 L-12.06 -52.25 L-12.39 -52.01 L-12.71 -51.76 L-13.03 -51.51 L-13.35 -51.25 L-13.66 -50.98 L-13.97 -50.71 L-14.27 -50.44 L-14.57 -50.16 L-14.87 -49.87 L-15.16 -49.58 L-15.45 -49.29 L-15.73 -48.99 L-16.01 -48.68 L-16.28 -48.37 L-16.55 -48.06 L-16.81 -47.74 L-17.07 -47.42 L-17.33 -47.10 L-17.58 -46.77 L-17.83 -46.44 L-18.07 -46.10 L-18.30 -45.76 L-18.54 -45.42 L-18.76 -45.08 L-18.99 -44.73 L-19.20 -44.38 L-19.42 -44.03 L-19.63 -43.67 L-19.83 -43.31 L-20.03 -42.95 L-20.22 -42.59 L-20.41 -42.23 L-20.60 -41.87 L-20.78 -41.50 L-20.96 -41.13 L-21.13 -40.76 L-21.30 -40.40 L-21.46 -40.02 L-21.62 -39.65 L-21.77 -39.28 L-21.92 -38.91 L-22.07 -38.54 L-22.34 -38.38 L-22.73 -38.44 L-23.13 -38.50 L-23.53 -38.55 L-23.93 -38.60 L-24.33 -38.64 L-24.74 -38.68 L-25.14 -38.72 L-25.55 -38.75 L-25.96 -38.77 L-26.37 -38.80 L-26.77 -38.81 L-27.18 -38.82 L-27.60 -38.83 L-28.01 -38.83 L-28.42 -38.83 L-28.83 -38.82 L-29.24 -38.81 L-29.66 -38.79 L-30.07 -38.76 L-30.48 -38.73 L-30.89 -38.70 L-31.30 -38.66 L-31.71 -38.61 L-32.12 -38.56 L-32.53 -38.50 L-32.94 -38.43 L-33.35 -38.36 L-33.75 -38.28 L-34.16 -38.20 L-34.56 -38.11 L-34.96 -38.02 L-35.36 -37.92 L-35.76 -37.81 L-36.15 -37.70 L-36.54 -37.58 L-36.93 -37.45 L-37.32 -37.32 L-37.71 -37.18 L-38.09 -37.04 L-38.47 -36.89 L-38.84 -36.73 L-39.22 -36.57 L-39.59 -36.40 L-39.95 -36.23 L-40.31 -36.05 L-40.67 -35.86 L-41.03 -35.66 L-41.38 -35.47 L-41.72 -35.26 L-42.07 -35.05 L-42.40 -34.83 L-42.74 -34.61 L-43.06 -34.38 L-43.39 -34.14 L-43.71 -33.90 L-44.02 -33.65 L-44.33 -33.40 L-44.63 -33.14 L-44.93 -32.88 L-45.22 -32.61 L-45.50 -32.34 L-45.78 -32.06 L-46.06 -31.77 L-46.33 -31.48 L-46.59 -31.19 L-46.84 -30.89 L-47.09 -30.58 L-47.34 -30.27 L-47.57 -29.96 L-47.80 -29.64 L-47.80 -29.64 L-47.78 -29.65 L-47.74 -29.66 L-47.69 -29.67 L-47.63 -29.68 L-47.55 -29.70 L-47.45 -29.72 L-47.35 -29.75 L-47.22 -29.78 L-47.09 -29.81 L-46.94 -29.84 L-46.77 -29.87 L-46.59 -29.91 L-46.40 -29.95 L-46.19 -29.99 L-45.96 -30.03 L-45.72 -30.07 L-45.47 -30.12 L-45.20 -30.16 L-44.92 -30.20 L-44.62 -30.25 L-44.31 -30.29 L-43.98 -30.33 L-43.64 -30.37 L-43.28 -30.40 L-42.91 -30.44 L-42.53 -30.47 L-42.13 -30.50 L-41.72 -30.52 L-41.29 -30.54 L-40.85 -30.56 L-40.40 -30.57 L-39.94 -30.57 L-39.46 -30.57 L-38.97 -30.56 L-38.47 -30.55 L-37.96 -30.52 L-37.44 -30.49 L-36.91 -30.46 L-36.37 -30.41 L-35.82 -30.35 L-35.27 -30.29 L-34.70 -30.21 L-34.14 -30.13 L-33.56 -30.03 L-32.98 -29.93 L-32.40 -29.82 L-31.81 -29.69 L-31.22 -29.56 L-30.64 -29.41 L-30.05 -29.26 L-29.46 -29.10 L-28.87 -28.92 L-28.29 -28.74 L-27.71 -28.55 L-27.13 -28.34 L-26.56 -28.13 L-25.99 -27.91 L-25.43 -27.69 L-24.88 -27.45 L-24.34 -27.21 L-23.81 -26.96 L-23.28 -26.71 L-22.77 -26.45 L-22.27 -26.18 L-21.78 -25.91 L-21.30 -25.63 L-20.84 -25.36 L-20.38 -25.07 L-19.94 -24.79 L-19.52 -24.50 L-19.11 -24.21 L-18.71 -23.91 L-18.33 -23.62 L-17.96 -23.32 L-17.60 -23.03 L-17.26 -22.73 L-16.93 -22.43 L-16.62 -22.14 L-16.32 -21.84 L-16.04 -21.54 L-15.77 -21.25 L-15.51 -20.95 L-15.26 -20.66 L-15.03 -20.36 L-14.81 -20.07 L-14.61 -19.78 L-14.41 -19.49 L-14.23 -19.20 L-14.06 -18.92 L-13.90 -18.63 L-13.75 -18.35 L-13.61 -18.06 L-13.48 -17.78 L-13.36 -17.50 L-13.26 -17.23 L-13.16 -16.95 L-13.06 -16.68 L-12.98 -16.41 L-12.91 -16.14 L-12.84 -15.88 L-12.78 -15.61 L-12.73 -15.35 L-12.69 -15.10 L-12.65 -14.85 L-12.62 -14.60 L-12.60 -14.35 L-12.58 -14.11 L-12.57 -13.87 L-12.57 -13.64 L-12.57 -13.41 L-12.58 -13.19 L-12.60 -12.97 L-12.62 -12.76 L-12.65 -12.55 L-12.68 -12.35 L-12.72 -12.16 L-12.77 -11.97 L-12.83 -11.78 L-12.89 -11.60 L-12.96 -11.43 L-13.03 -11.27 L-13.11 -11.11 L-13.20 -10.95 L-13.29 -10.80 L-13.39 -10.66 L-13.49 -10.53 L-13.60 -10.40 L-13.71 -10.27 L-13.83 -10.16 L-13.95 -10.05 L-14.08 -9.94 L-14.21 -9.84 L-14.34 -9.75 L-14.48 -9.66 L-14.61 -9.58 L-14.74 -9.51 L-14.87 -9.44 L-14.99 -9.39 L-15.08 -9.35"/>
<path d="M-22.14 -38.35 L-22.00 -38.72 L-21.85 -39.10 L-21.70 -39.47 L-21.54 -39.84 L-21.38 -40.21 L-21.21 -40.58 L-21.04 -40.95 L-20.87 -41.32 L-20.69 -41.68 L-20.51 -42.05 L-20.32 -42.41 L-20.13 -42.77 L-19.93 -43.13 L-19.73 -43.49 L-19.52 -43.85 L-19.31 -44.20 L-19.10 -44.55 L-18.88 -44.90 L-18.65 -45.25 L-18.42 -45.59 L-18.19 -45.93 L-17.95 -46.27 L-17.70 -46.60 L-17.45 -46.93 L-17.20 -47.26 L-16.94 -47.58 L-16.68 -47.90 L-16.41 -48.22 L-16.14 -48.53 L-15.87 -48.83 L-15.59 -49.14 L-15.30 -49.43 L-15.01 -49.73 L-14.72 -50.02 L-14.42 -50.30 L-14.12 -50.58 L-13.82 -50.85 L-13.51 -51.12 L-13.19 -51.38 L-12.87 -51.63 L-12.55 -51.88 L-12.23 -52.13 L-11.90 -52.37 L-11.56 -52.60 L-11.23 -52.83 L-10.89 -53.05 L-10.55 -53.26 L-10.20 -53.47 L-9.85 -53.67 L-9.50 -53.86 L-9.14 -54.05 L-8.78 -54.23 L-8.42 -54.40 L-8.06 -54.57 L-7.69 -54.72 L-7.32 -54.88 L-6.95 -55.02 L-6.58 -55.16 L-6.20 -55.29 L-5.82 -55.41 L-5.44 -55.52 L-5.06 -55.63 L-4.68 -55.73 L-4.29 -55.82 L-3.91 -55.90 L-3.52 -55.98 L-3.13 -56.05 L-2.74 -56.10 L-2.35 -56.16 L-1.96 -56.20 L-1.57 -56.24 L-1.18 -56.26 L-0.79 -56.28 L-0.39 -56.30 L0.00 -56.30"/>
<path d="M0.00 -85.00 L-0.59 -85.00 L-1.19 -84.99 L-1.78 -84.98 L-2.37 -84.97 L-2.97 -84.95 L-3.56 -84.93 L-4.15 -84.90 L-4.74 -84.87 L-5.34 -84.83 L-5.93 -84.79 L-6.52 -84.75 L-7.11 -84.70 L-7.70 -84.65 L-8.29 -84.59 L-8.88 -84.53 L-9.47 -84.47 L-10.06 -84.40 L-10.65 -84.33 L-11.24 -84.25 L-11.83 -84.17 L-12.42 -84.09 L-13.00 -84.00 L-13.59 -83.91 L-14.18 -83.81 L-14.76 -83.71 L-15.34 -83.60 L-15.93 -83.49 L-16.51 -83.38 L-17.09 -83.26 L-17.67 -83.14 L-18.25 -83.02 L-18.83 -82.89 L-19.41 -82.75 L-19.99 -82.62 L-20.56 -82.48 L-21.14 -82.33 L-21.71 -82.18 L-22.29 -82.03 L-22.86 -81.87 L-23.43 -81.71 L-24.00 -81.54 L-24.57 -81.37 L-25.14 -81.20 L-25.70 -81.02 L-26.27 -80.84 L-26.83 -80.65 L-27.39 -80.47 L-27.95 -80.27 L-28.51 -80.07 L-29.07 -79.87 L-29.63 -79.67 L-30.18 -79.46 L-30.74 -79.25 L-31.29 -79.03 L-31.84 -78.81 L-32.39 -78.59 L-32.94 -78.36 L-33.49 -78.13 L-34.03 -77.89 L-34.57 -77.65 L-35.11 -77.41 L-35.65 -77.16 L-36.19 -76.91 L-36.73 -76.66 L-37.26 -76.40 L-37.79 -76.14 L-38.32 -75.87 L-38.85 -75.60 L-39.38 -75.33 L-39.91 -75.05 L-40.43 -74.77 L-40.95 -74.49 L-41.47 -74.20 L-41.99 -73.91 L-42.50 -73.61 L-42.50 -73.61 L-42.49 -73.59 L-42.48 -73.57 L-42.46 -73.54 L-42.44 -73.50 L-42.41 -73.45 L-42.37 -73.40 L-42.34 -73.33 L-42.29 -73.25 L-42.24 -73.17 L-42.19 -73.08 L-42.13 -72.98 L-42.07 -72.87 L-42.00 -72.75 L-41.93 -72.62 L-41.85 -72.49 L-41.77 -72.34 L-41.68 -72.19 L-41.59 -72.03 L-41.49 -71.87 L-41.39 -71.69 L-41.28 -71.51 L-41.17 -71.32 L-41.06 -71.12 L-40.94 -70.91 L-40.82 -70.70 L-40.69 -70.47 L-40.56 -70.25 L-40.42 -70.01 L-40.28 -69.77 L-40.13 -69.52 L-39.99 -69.26 L-39.83 -69.00 L-39.68 -68.72 L-39.52 -68.45 L-39.36 -68.17 L-39.19 -67.88 L-39.02 -67.58 L-38.84 -67.28 L-38.67 -66.97 L-38.49 -66.66 L-38.30 -66.34 L-38.12 -66.02 L-37.93 -65.69 L-37.74 -65.36 L-37.54 -65.02 L-37.34 -64.68 L-37.14 -64.34 L-36.94 -63.99 L-36.74 -63.63 L-36.53 -63.27 L-36.32 -62.91 L-36.11 -62.55 L-35.90 -62.18 L-35.68 -61.80 L-35.47 -61.43 L-35.25 -61.05 L-35.03 -60.67 L-34.81 -60.29 L-34.59 -59.91 L-34.36 -59.52 L-34.14 -59.13 L-33.91 -58.74 L-33.69 -58.35 L-33.46 -57.96 L-33.23 -57.56 L-33.01 -57.17 L-32.78 -56.77 L-32.55 -56.38 L-32.32 -55.98 L-32.09 -55.59 L-31.86 -55.19 L-31.64 -54.80 L-31.41 -54.40 L-31.18 -54.01 L-30.95 -53.62 L-30.73 -53.22 L-30.50 -52.83 L-30.28 -52.45 L-30.06 -52.06 L-29.83 -51.67 L-29.61 -51.29 L-29.39 -50.91 L-29.18 -50.53 L-28.96 -50.16 L-28.74 -49.79 L-28.53 -49.42 L-28.32 -49.05 L-28.11 -48.69 L-27.90 -48.33 L-27.70 -47.98 L-27.50 -47.63 L-27.30 -47.28 L-27.10 -46.94 L-26.91 -46.60 L-26.71 -46.27 L-26.52 -45.94 L-26.34 -45.62 L-26.15 -45.30 L-25.97 -44.99 L-25.80 -44.68 L-25.62 -44.38 L-25.45 -44.09 L-25.29 -43.80 L-25.12 -43.52 L-24.96 -43.24 L-24.81 -42.97 L-24.66 -42.71 L-24.51 -42.45 L-24.36 -42.20 L-24.22 -41.95 L-24.09 -41.72 L-23.95 -41.49 L-23.83 -41.27 L-23.70 -41.05 L-23.58 -40.85 L-23.47 -40.65 L-23.36 -40.46 L-23.25 -40.27 L-23.15 -40.10 L-23.05 -39.93 L-22.96 -39.77 L-22.87 -39.62 L-22.79 -39.48 L-22.71 -39.34 L-22.64 -39.21 L-22.57 -39.10 L-22.51 -38.99 L-22.45 -38.89 L-22.40 -38.79 L-22.35 -38.71 L-22.31 -38.64 L-22.27 -38.57 L-22.23 -38.51 L-22.21 -38.46 L-22.18 -38.42 L-22.17 -38.39 L-22.15 -38.37 L-22.14 -38.36 L-22.14 -38.35"/>
<path d="M0.00 56.30 L-0.39 56.30 L-0.79 56.28 L-1.18 56.26 L-1.57 56.24 L-1.96 56.20 L-2.35 56.16 L-2.74 56.10 L-3.13 56.05 L-3.52 55.98 L-3.91 55.90 L-4.29 55.82 L-4.68 55.73 L-5.06 55.63 L-5.44 55.52 L-5.82 55.41 L-6.20 55.29 L-6.58 55.16 L-6.95 55.02 L-7.32 54.88 L-7.69 54.72 L-8.06 54.57 L-8.42 54.40 L-8.78 54.23 L-9.14 54.05 L-9.50 53.86 L-9.85 53.67 L-10.20 53.47 L-10.55 53.26 L-10.89 53.05 L-11.23 52.83 L-11.56 52.60 L-11.90 52.37 L-12.23 52.13 L-12.55 51.88 L-12.87 51.63 L-13.19 51.38 L-13.51 51.12 L-13.82 50.85 L-14.12 50.58 L-14.42 50.30 L-14.72 50.02 L-15.01 49.73 L-15.30 49.43 L-15.59 49.14 L-15.87 48.83 L-16.14 48.53 L-16.41 48.22 L-16.68 47.90 L-16.94 47.58 L-17.20 47.26 L-17.45 46.93 L-17.70 46.60 L-17.95 46.27 L-18.19 45.93 L-18.42 45.59 L-18.65 45.25 L-18.88 44.90 L-19.10 44.55 L-19.31 44.20 L-19.52 43.85 L-19.73 43.49 L-19.93 43.13 L-20.13 42.77 L-20.32 42.41 L-20.51 42.05 L-20.69 41.68 L-20.87 41.32 L-21.04 40.95 L-21.21 40.58 L-21.38 40.21 L-21.54 39.84 L-21.70 39.47 L-21.85 39.10 L-22.00 38.72 L-22.14 38.35 L-22.14 38.36 L-22.15 38.37 L-22.17 38.39 L-22.18 38.42 L-22.21 38.46 L-22.23 38.51 L-22.27 38.57 L-22.31 38.64 L-22.35 38.71 L-22.40 38.79 L-22.45 38.89 L-22.51 38.99 L-22.57 39.10 L-22.64 39.21 L-22.71 39.34 L-22.79 39.48 L-22.87 39.62 L-22.96 39.77 L-23.05 39.93 L-23.15 40.10 L-23.25 40.27 L-23.36 40.46 L-23.47 40.65 L-23.58 40.85 L-23.70 41.05 L-23.83 41.27 L-23.95 41.49 L-24.09 41.72 L-24.22 41.95 L-24.36 42.20 L-24.51 42.45 L-24.66 42.71 L-24.81 42.97 L-24.96 43.24 L-25.12 43.52 L-25.29 43.80 L-25.45 44.09 L-25.62 44.38 L-25.80 44.68 L-25.97 44.99 L-26.15 45.30 L-26.34 45.62 L-26.52 45.94 L-26.71 46.27 L-26.91 46.60 L-27.10 46.94 L-27.30 47.28 L-27.50 47.63 L-27.70 47.98 L-27.90 48.33 L-28.11 48.69 L-28.32 49.05 L-28.53 49.42 L-28.74 49.79 L-28.96 50.16 L-29.18 50.53 L-29.39 50.91 L-29.61 51.29 L-29.83 51.67 L-30.06 52.06 L-30.28 52.45 L-30.50 52.83 L-30.73 53.22 L-30.95 53.62 L-31.18 54.01 L-31.41 54.40 L-31.64 54.80 L-31.86 55.19 L-32.09 55.59 L-32.32 55.98 L-32.55 56.38 L-32.78 56.77 L-33.01 57.17 L-33.23 57.56 L-33.46 57.96 L-33.69 58.35 L-33.91 58.74 L-34.14 59.13 L-34.36 59.52 L-34.59 59.91 L-34.81 60.29 L-35.03 60.67 L-35.25 61.05 L-35.47 61.43 L-35.68 61.80 L-35.90 62.18 L-36.11 62.55 L-36.32 62.91 L-36.53 63.27 L-36.74 63.63 L-36.94 63.99 L-37.14 64.34 L-37.34 64.68 L-37.54 65.02 L-37.74 65.36 L-37.93 65.69 L-38.12 66.02 L-38.30 66.34 L-38.49 66.66 L-38.67 66.97 L-38.84 67.28 L-39.02 67.58 L-39.19 67.88 L-39.36 68.17 L-39.52 68.45 L-39.68 68.72 L-39.83 69.00 L-39.99 69.26 L-40.13 69.52 L-40.28 69.77 L-40.42 70.01 L-40.56 70.25 L-40.69 70.47 L-40.82 70.70 L-40.94 70.91 L-41.06 71.12 L-41.17 71.32 L-41.28 71.51 L-41.39 71.69 L-41.49 71.87 L-41.59 72.03 L-41.68 72.19 L-41.77 72.34 L-41.85 72.49 L-41.93 72.62 L-42.00 72.75 L-42.07 72.87 L-42.13 72.98 L-42.19 73.08 L-42.24 73.17 L-42.29 73.25 L-42.34 73.33 L-42.37 73.40 L-42.41 73.45 L-42.44 73.50 L-42.46 73.54 L-42.48 73.57 L-42.49 73.59 L-42.50 73.61 L-42.50 73.61 L-41.99 73.91 L-41.47 74.20 L-40.95 74.49 L-40.43 74.77 L-39.91 75.05 L-39.38 75.33 L-38.85 75.60 L-38.32 75.87 L-37.79 76.14 L-37.26 76.40 L-36.73 76.66 L-36.19 76.91 L-35.65 77.16 L-35.11 77.41 L-34.57 77.65 L-34.03 77.89 L-33.49 78.13 L-32.94 78.36 L-32.39 78.59 L-31.84 78.81 L-31.29 79.03 L-30.74 79.25 L-30.18 79.46 L-29.63 79.67 L-29.07 79.87 L-28.51 80.07 L-27.95 80.27 L-27.39 80.47 L-26.83 80.65 L-26.27 80.84 L-25.70 81.02 L-25.14 81.20 L-24.57 81.37 L-24.00 81.54 L-23.43 81.71 L-22.86 81.87 L-22.29 82.03 L-21.71 82.18 L-21.14 82.33 L-20.56 82.48 L-19.99 82.62 L-19.41 82.75 L-18.83 82.89 L-18.25 83.02 L-17.67 83.14 L-17.09 83.26 L-16.51 83.38 L-15.93 83.49 L-15.34 83.60 L-14.76 83.71 L-14.18 83.81 L-13.59 83.91 L-13.00 84.00 L-12.42 84.09 L-11.83 84.17 L-11.24 84.25 L-10.65 84.33 L-10.06 84.40 L-9.47 84.47 L-8.88 84.53 L-8.29 84.59 L-7.70 84.65 L-7.11 84.70 L-6.52 84.75 L-5.93 84.79 L-5.34 84.83 L-4.74 84.87 L-4.15 84.90 L-3.56 84.93 L-2.97 84.95 L-2.37 84.97 L-1.78 84.98 L-1.19 84.99 L-0.59 85.00 L0.00 85.00"/>
<path d="M-22.14 38.35 L-22.54 38.41 L-22.93 38.47 L-23.33 38.52 L-23.73 38.57 L-24.13 38.62 L-24.54 38.66 L-24.94 38.70 L-25.35 38.73 L-25.75 38.76 L-26.16 38.78 L-26.57 38.80 L-26.98 38.82 L-27.39 38.83 L-27.80 38.83 L-28.21 38.83 L-28.62 38.83 L-29.04 38.81 L-29.45 38.80 L-29.86 38.78 L-30.27 38.75 L-30.69 38.72 L-31.10 38.68 L-31.51 38.63 L-31.92 38.58 L-32.33 38.53 L-32.74 38.46 L-33.14 38.40 L-33.55 38.32 L-33.95 38.24 L-34.36 38.16 L-34.76 38.07 L-35.16 37.97 L-35.56 37.87 L-35.95 37.76 L-36.35 37.64 L-36.74 37.52 L-37.13 37.39 L-37.51 37.25 L-37.90 37.11 L-38.28 36.97 L-38.66 36.81 L-39.03 36.65 L-39.40 36.49 L-39.77 36.32 L-40.13 36.14 L-40.49 35.95 L-40.85 35.76 L-41.20 35.57 L-41.55 35.36 L-41.90 35.15 L-42.24 34.94 L-42.57 34.72 L-42.90 34.49 L-43.23 34.26 L-43.55 34.02 L-43.86 33.78 L-44.17 33.53 L-44.48 33.27 L-44.78 33.01 L-45.07 32.75 L-45.36 32.48 L-45.64 32.20 L-45.92 31.92 L-46.19 31.63 L-46.46 31.34 L-46.72 31.04 L-46.97 30.74 L-47.22 30.43 L-47.46 30.12 L-47.69 29.80 L-47.92 29.48 L-48.14 29.15 L-48.35 28.82 L-48.56 28.49 L-48.76 28.15 L-48.95 27.81 L-49.14 27.46 L-49.32 27.11 L-49.49 26.76 L-49.65 26.40 L-49.81 26.04 L-49.96 25.68 L-50.10 25.31 L-50.24 24.94 L-50.37 24.57 L-50.49 24.19 L-50.60 23.81 L-50.71 23.43 L-50.81 23.05 L-50.90 22.66 L-50.98 22.27 L-51.06 21.88 L-51.12 21.49 L-51.18 21.10 L-51.24 20.70 L-51.28 20.30 L-51.32 19.91 L-51.35 19.51 L-51.38 19.11 L-51.39 18.71 L-51.40 18.30 L-51.40 17.90 L-51.40 17.50 L-51.38 17.09 L-51.36 16.69 L-51.34 16.28 L-51.30 15.88 L-51.26 15.48 L-51.21 15.07 L-51.15 14.67 L-51.09 14.26 L-51.02 13.86 L-50.94 13.46 L-50.86 13.06 L-50.77 12.66 L-50.67 12.26 L-50.57 11.86 L-50.46 11.46 L-50.35 11.07 L-50.23 10.68 L-50.10 10.28 L-49.96 9.89 L-49.82 9.50 L-49.68 9.12 L-49.53 8.73 L-49.37 8.35 L-49.21 7.97 L-49.04 7.59 L-48.87 7.22 L-48.69 6.84 L-48.51 6.47 L-48.32 6.10 L-48.13 5.74 L-47.94 5.38 L-47.74 5.02 L-47.53 4.66 L-47.32 4.31 L-47.11 3.96 L-46.89 3.61 L-46.67 3.26 L-46.44 2.92 L-46.22 2.58 L-45.99 2.25 L-45.75 1.92 L-45.51 1.59 L-45.27 1.26 L-45.03 0.94 L-44.78 0.63 L-44.54 0.31 L-44.28 0.00 L-44.29 0.00 L-44.31 0.00 L-44.33 0.00 L-44.37 0.00 L-44.41 0.00 L-44.47 0.00 L-44.54 0.00 L-44.61 0.00 L-44.70 0.00 L-44.80 0.00 L-44.90 0.00 L-45.02 0.00 L-45.14 0.00 L-45.28 0.00 L-45.43 0.00 L-45.58 0.00 L-45.75 0.00 L-45.92 0.00 L-46.11 0.00 L-46.30 0.00 L-46.50 0.00 L-46.72 0.00 L-46.94 0.00 L-47.17 0.00 L-47.41 0.00 L-47.65 0.00 L-47.91 0.00 L-48.17 0.00 L-48.45 0.00 L-48.73 0.00 L-49.01 0.00 L-49.31 0.00 L-49.62 0.00 L-49.93 0.00 L-50.25 0.00 L-50.57 0.00 L-50.91 0.00 L-51.25 0.00 L-51.60 0.00 L-51.95 0.00 L-52.31 0.00 L-52.68 0.00 L-53.05 0.00 L-53.43 0.00 L-53.81 0.00 L-54.20 0.00 L-54.60 0.00 L-55.00 0.00 L-55.40 0.00 L-55.81 0.00 L-56.22 0.00 L-56.64 0.00 L-57.06 0.00 L-57.49 0.00 L-57.92 0.00 L-58.35 0.00 L-58.79 0.00 L-59.23 0.00 L-59.67 0.00 L-60.11 0.00 L-60.56 0.00 L-61.01 0.00 L-61.46 0.00 L-61.91 0.00 L-62.36 0.00 L-62.82 0.00 L-63.27 0.00 L-63.73 0.00 L-64.19 0.00 L-64.64 0.00 L-65.10 0.00 L-65.56 0.00 L-66.01 0.00 L-66.47 0.00 L-66.92 0.00 L-67.38 0.00 L-67.83 0.00 L-68.28 0.00 L-68.73 0.00 L-69.17 0.00 L-69.62 0.00 L-70.06 0.00 L-70.50 0.00 L-70.93 0.00 L-71.37 0.00 L-71.80 0.00 L-72.22 0.00 L-72.64 0.00 L-73.06 0.00 L-73.48 0.00 L-73.88 0.00 L-74.29 0.00 L-74.69 0.00 L-75.08 0.00 L-75.47 0.00 L-75.86 0.00 L-76.24 0.00 L-76.61 0.00 L-76.97 0.00 L-77.34 0.00 L-77.69 0.00 L-78.04 0.00 L-78.38 0.00 L-78.71 0.00 L-79.04 0.00 L-79.36 0.00 L-79.67 0.00 L-79.97 0.00 L-80.27 0.00 L-80.56 0.00 L-80.84 0.00 L-81.11 0.00 L-81.38 0.00 L-81.63 0.00 L-81.88 0.00 L-82.12 0.00 L-82.35 0.00 L-82.57 0.00 L-82.78 0.00 L-82.98 0.00 L-83.18 0.00 L-83.36 0.00 L-83.54 0.00 L-83.70 0.00 L-83.86 0.00 L-84.00 0.00 L-84.14 0.00 L-84.27 0.00 L-84.38 0.00 L-84.49 0.00 L-84.59 0.00 L-84.67 0.00 L-84.75 0.00 L-84.82 0.00 L-84.87 0.00 L-84.92 0.00 L-84.95 0.00 L-84.98 0.00 L-84.99 0.00 L-85.00 0.00 L-85.00 0.59 L-84.99 1.19 L-84.98 1.78 L-84.97 2.37 L-84.95 2.97 L-84.93 3.56 L-84.90 4.15 L-84.87 4.74 L-84.83 5.34 L-84.79 5.93 L-84.75 6.52 L-84.70 7.11 L-84.65 7.70 L-84.59 8.29 L-84.53 8.88 L-84.47 9.47 L-84.40 10.06 L-84.33 10.65 L-84.25 11.24 L-84.17 11.83 L-84.09 12.42 L-84.00 13.00 L-83.91 13.59 L-83.81 14.18 L-83.71 14.76 L-83.60 15.34 L-83.49 15.93 L-83.38 16.51 L-83.26 17.09 L-83.14 17.67 L-83.02 18.25 L-82.89 18.83 L-82.75 19.41 L-82.62 19.99 L-82.48 20.56 L-82.33 21.14 L-82.18 21.71 L-82.03 22.29 L-81.87 22.86 L-81.71 23.43 L-81.54 24.00 L-81.37 24.57 L-81.20 25.14 L-81.02 25.70 L-80.84 26.27 L-80.65 26.83 L-80.47 27.39 L-80.27 27.95 L-80.07 28.51 L-79.87 29.07 L-79.67 29.63 L-79.46 30.18 L-79.25 30.74 L-79.03 31.29 L-78.81 31.84 L-78.59 32.39 L-78.36 32.94 L-78.13 33.49 L-77.89 34.03 L-77.65 34.57 L-77.41 35.11 L-77.16 35.65 L-76.91 36.19 L-76.66 36.73 L-76.40 37.26 L-76.14 37.79 L-75.87 38.32 L-75.60 38.85 L-75.33 39.38 L-75.05 39.91 L-74.77 40.43 L-74.49 40.95 L-74.20 41.47 L-73.91 41.99 L-73.61 42.50 L-73.31 43.01 L-73.01 43.52 L-72.71 44.03 L-72.40 44.54 L-72.08 45.04 L-71.77 45.55 L-71.45 46.05 L-71.12 46.54 L-70.80 47.04 L-70.47 47.53 L-70.13 48.02 L-69.80 48.51 L-69.46 49.00 L-69.11 49.48 L-68.77 49.96 L-68.42 50.44 L-68.06 50.92 L-67.71 51.39 L-67.34 51.86 L-66.98 52.33 L-66.61 52.80 L-66.24 53.26 L-65.87 53.72 L-65.49 54.18 L-65.11 54.64 L-64.73 55.09 L-64.34 55.54 L-63.96 55.99 L-63.56 56.43 L-63.17 56.88 L-62.77 57.32 L-62.37 57.75 L-61.96 58.19 L-61.55 58.62 L-61.14 59.05 L-60.73 59.47 L-60.31 59.89 L-59.89 60.31 L-59.47 60.73 L-59.05 61.14 L-58.62 61.55 L-58.19 61.96 L-57.75 62.37 L-57.32 62.77 L-56.88 63.17 L-56.43 63.56 L-55.99 63.96 L-55.54 64.34 L-55.09 64.73 L-54.64 65.11 L-54.18 65.49 L-53.72 65.87 L-53.26 66.24 L-52.80 66.61 L-52.33 66.98 L-51.86 67.34 L-51.39 67.71 L-50.92 68.06 L-50.44 68.42 L-49.96 68.77 L-49.48 69.11 L-49.00 69.46 L-48.51 69.80 L-48.02 70.13 L-47.53 70.47 L-47.04 70.80 L-46.54 71.12 L-46.05 71.45 L-45.55 71.77 L-45.04 72.08 L-44.54 72.40 L-44.03 72.71 L-43.52 73.01 L-43.01 73.31 L-42.50 73.61 L-42.50 73.61 L-42.49 73.59 L-42.48 73.57 L-42.46 73.54 L-42.44 73.50 L-42.41 73.45 L-42.37 73.40 L-42.34 73.33 L-42.29 73.25 L-42.24 73.17 L-42.19 73.08 L-42.13 72.98 L-42.07 72.87 L-42.00 72.75 L-41.93 72.62 L-41.85 72.49 L-41.77 72.34 L-41.68 72.19 L-41.59 72.03 L-41.49 71.87 L-41.39 71.69 L-41.28 71.51 L-41.17 71.32 L-41.06 71.12 L-40.94 70.91 L-40.82 70.70 L-40.69 70.47 L-40.56 70.25 L-40.42 70.01 L-40.28 69.77 L-40.13 69.52 L-39.99 69.26 L-39.83 69.00 L-39.68 68.72 L-39.52 68.45 L-39.36 68.17 L-39.19 67.88 L-39.02 67.58 L-38.84 67.28 L-38.67 66.97 L-38.49 66.66 L-38.30 66.34 L-38.12 66.02 L-37.93 65.69 L-37.74 65.36 L-37.54 65.02 L-37.34 64.68 L-37.14 64.34 L-36.94 63.99 L-36.74 63.63 L-36.53 63.27 L-36.32 62.91 L-36.11 62.55 L-35.90 62.18 L-35.68 61.80 L-35.47 61.43 L-35.25 61.05 L-35.03 60.67 L-34.81 60.29 L-34.59 59.91 L-34.36 59.52 L-34.14 59.13 L-33.91 58.74 L-33.69 58.35 L-33.46 57.96 L-33.23 57.56 L-33.01 57.17 L-32.78 56.77 L-32.55 56.38 L-32.32 55.98 L-32.09 55.59 L-31.86 55.19 L-31.64 54.80 L-31.41 54.40 L-31.18 54.01 L-30.95 53.62 L-30.73 53.22 L-30.50 52.83 L-30.28 52.45 L-30.06 52.06 L-29.83 51.67 L-29.61 51.29 L-29.39 50.91 L-29.18 50.53 L-28.96 50.16 L-28.74 49.79 L-28.53 49.42 L-28.32 49.05 L-28.11 48.69 L-27.90 48.33 L-27.70 47.98 L-27.50 47.63 L-27.30 47.28 L-27.10 46.94 L-26.91 46.60 L-26.71 46.27 L-26.52 45.94 L-26.34 45.62 L-26.15 45.30 L-25.97 44.99 L-25.80 44.68 L-25.62 44.38 L-25.45 44.09 L-25.29 43.80 L-25.12 43.52 L-24.96 43.24 L-24.81 42.97 L-24.66 42.71 L-24.51 42.45 L-24.36 42.20 L-24.22 41.95 L-24.09 41.72 L-23.95 41.49 L-23.83 41.27 L-23.70 41.05 L-23.58 40.85 L-23.47 40.65 L-23.36 40.46 L-23.25 40.27 L-23.15 40.10 L-23.05 39.93 L-22.96 39.77 L-22.87 39.62 L-22.79 39.48 L-22.71 39.34 L-22.64 39.21 L-22.57 39.10 L-22.51 38.99 L-22.45 38.89 L-22.40 38.79 L-22.35 38.71 L-22.31 38.64 L-22.27 38.57 L-22.23 38.51 L-22.21 38.46 L-22.18 38.42 L-22.17 38.39 L-22.15 38.37 L-22.14 38.36 L-22.14 38.35"/>
<path d="M-44.28 0.00 L-44.53 -0.31 L-44.78 -0.62 L-45.02 -0.94 L-45.27 -1.26 L-45.51 -1.58 L-45.74 -1.90 L-45.97 -2.23 L-46.20 -2.57 L-46.43 -2.90 L-46.65 -3.24 L-46.87 -3.58 L-47.09 -3.93 L-47.30 -4.28 L-47.51 -4.63 L-47.71 -4.98 L-47.91 -5.34 L-48.11 -5.70 L-48.30 -6.06 L-48.49 -6.43 L-48.67 -6.79 L-48.85 -7.16 L-49.02 -7.54 L-49.19 -7.91 L-49.35 -8.29 L-49.50 -8.67 L-49.65 -9.05 L-49.80 -9.44 L-49.94 -9.82 L-50.07 -10.21 L-50.20 -10.60 L-50.32 -10.99 L-50.44 -11.38 L-50.55 -11.77 L-50.65 -12.17 L-50.75 -12.57 L-50.84 -12.96 L-50.92 -13.36 L-51.00 -13.76 L-51.07 -14.16 L-51.14 -14.56 L-51.19 -14.96 L-51.25 -15.36 L-51.29 -15.76 L-51.33 -16.17 L-51.36 -16.57 L-51.38 -16.97 L-51.39 -17.37 L-51.40 -17.77 L-51.40 -18.17 L-51.40 -18.57 L-51.38 -18.97 L-51.36 -19.37 L-51.33 -19.77 L-51.30 -20.16 L-51.26 -20.56 L-51.21 -20.95 L-51.15 -21.34 L-51.08 -21.73 L-51.01 -22.12 L-50.93 -22.51 L-50.84 -22.89 L-50.75 -23.27 L-50.65 -23.65 L-50.54 -24.03 L-50.42 -24.40 L-50.30 -24.78 L-50.16 -25.15 L-50.03 -25.51 L-49.88 -25.87 L-49.73 -26.23 L-49.57 -26.59 L-49.40 -26.94 L-49.22 -27.29 L-49.04 -27.64 L-48.85 -27.98 L-48.66 -28.32 L-48.46 -28.65 L-48.25 -28.98 L-48.03 -29.31 L-47.81 -29.63 L-47.58 -29.95 L-47.35 -30.26 L-47.11 -30.57 L-46.86 -30.87 L-46.60 -31.17 L-46.34 -31.46 L-46.08 -31.75 L-45.81 -32.03 L-45.53 -32.31 L-45.25 -32.59 L-44.96 -32.85 L-44.66 -33.12 L-44.36 -33.37 L-44.06 -33.62 L-43.75 -33.87 L-43.43 -34.11 L-43.11 -34.34 L-42.79 -34.57 L-42.46 -34.80 L-42.12 -35.01 L-41.78 -35.22 L-41.44 -35.43 L-41.09 -35.63 L-40.74 -35.82 L-40.39 -36.01 L-40.03 -36.19 L-39.66 -36.37 L-39.30 -36.54 L-38.93 -36.70 L-38.55 -36.85 L-38.18 -37.01 L-37.80 -37.15 L-37.42 -37.29 L-37.03 -37.42 L-36.65 -37.55 L-36.26 -37.67 L-35.87 -37.78 L-35.47 -37.89 L-35.08 -37.99 L-34.68 -38.09 L-34.28 -38.18 L-33.88 -38.26 L-33.47 -38.34 L-33.07 -38.41 L-32.67 -38.48 L-32.26 -38.54 L-31.85 -38.59 L-31.45 -38.64 L-31.04 -38.68 L-30.63 -38.72 L-30.22 -38.75 L-29.81 -38.78 L-29.40 -38.80 L-28.99 -38.82 L-28.58 -38.83 L-28.17 -38.83 L-27.76 -38.83 L-27.35 -38.83 L-26.95 -38.82 L-26.54 -38.80 L-26.13 -38.78 L-25.73 -38.76 L-25.32 -38.73 L-24.92 -38.70 L-24.52 -38.66 L-24.12 -38.62 L-23.72 -38.57 L-23.32 -38.52 L-22.93 -38.47 L-22.53 -38.41 L-22.14 -38.35 L-22.14 -38.36 L-22.15 -38.37 L-22.17 -38.39 L-22.18 -38.42 L-22.21 -38.46 L-22.23 -38.51 L-22.27 -38.57 L-22.31 -38.64 L-22.35 -38.71 L-22.40 -38.79 L-22.45 -38.89 L-22.51 -38.99 L-22.57 -39.10 L-22.64 -39.21 L-22.71 -39.34 L-22.79 -39.48 L-22.87 -39.62 L-22.96 -39.77 L-23.05 -39.93 L-23.15 -40.10 L-23.25 -40.27 L-23.36 -40.46 L-23.47 -40.65 L-23.58 -40.85 L-23.70 -41.05 L-23.83 -41.27 L-23.95 -41.49 L-24.09 -41.72 L-24.22 -41.95 L-24.36 -42.20 L-24.51 -42.45 L-24.66 -42.71 L-24.81 -42.97 L-24.96 -43.24 L-25.12 -43.52 L-25.29 -43.80 L-25.45 -44.09 L-25.62 -44.38 L-25.80 -44.68 L-25.97 -44.99 L-26.15 -45.30 L-26.34 -45.62 L-26.52 -45.94 L-26.71 -46.27 L-26.91 -46.60 L-27.10 -46.94 L-27.30 -47.28 L-27.50 -47.63 L-27.70 -47.98 L-27.90 -48.33 L-28.11 -48.69 L-28.32 -49.05 L-28.53 -49.42 L-28.74 -49.79 L-28.96 -50.16 L-29.18 -50.53 L-29.39 -50.91 L-29.61 -51.29 L-29.83 -51.67 L-30.06 -52.06 L-30.28 -52.45 L-30.50 -52.83 L-30.73 -53.22 L-30.95 -53.62 L-31.18 -54.01 L-31.41 -54.40 L-31.64 -54.80 L-31.86 -55.19 L-32.09 -55.59 L-32.32 -55.98 L-32.55 -56.38 L-32.78 -56.77 L-33.01 -57.17 L-33.23 -57.56 L-33.46 -57.96 L-33.69 -58.35 L-33.91 -58.74 L-34.14 -59.13 L-34.36 -59.52 L-34.59 -59.91 L-34.81 -60.29 L-35.03 -60.67 L-35.25 -61.05 L-35.47 -61.43 L-35.68 -61.80 L-35.90 -62.18 L-36.11 -62.55 L-36.32 -62.91 L-36.53 -63.27 L-36.74 -63.63 L-36.94 -63.99 L-37.14 -64.34 L-37.34 -64.68 L-37.54 -65.02 L-37.74 -65.36 L-37.93 -65.69 L-38.12 -66.02 L-38.30 -66.34 L-38.49 -66.66 L-38.67 -66.97 L-38.84 -67.28 L-39.02 -67.58 L-39.19 -67.88 L-39.36 -68.17 L-39.52 -68.45 L-39.68 -68.72 L-39.83 -69.00 L-39.99 -69.26 L-40.13 -69.52 L-40.28 -69.77 L-40.42 -70.01 L-40.56 -70.25 L-40.69 -70.47 L-40.82 -70.70 L-40.94 -70.91 L-41.06 -71.12 L-41.17 -71.32 L-41.28 -71.51 L-41.39 -71.69 L-41.49 -71.87 L-41.59 -72.03 L-41.68 -72.19 L-41.77 -72.34 L-41.85 -72.49 L-41.93 -72.62 L-42.00 -72.75 L-42.07 -72.87 L-42.13 -72.98 L-42.19 -73.08 L-42.24 -73.17 L-42.29 -73.25 L-42.34 -73.33 L-42.37 -73.40 L-42.41 -73.45 L-42.44 -73.50 L-42.46 -73.54 L-42.48 -73.57 L-42.49 -73.59 L-42.50 -73.61 L-42.50 -73.61 L-43.01 -73.32 L-43.52 -73.02 L-44.02 -72.71 L-44.53 -72.41 L-45.03 -72.09 L-45.53 -71.78 L-46.02 -71.46 L-46.52 -71.14 L-47.01 -70.82 L-47.50 -70.49 L-47.99 -70.16 L-48.47 -69.82 L-48.95 -69.49 L-49.44 -69.15 L-49.91 -68.80 L-50.39 -68.45 L-50.86 -68.10 L-51.33 -67.75 L-51.80 -67.39 L-52.27 -67.03 L-52.73 -66.67 L-53.19 -66.30 L-53.65 -65.93 L-54.11 -65.55 L-54.56 -65.18 L-55.01 -64.80 L-55.46 -64.41 L-55.91 -64.03 L-56.35 -63.64 L-56.79 -63.25 L-57.23 -62.85 L-57.66 -62.45 L-58.09 -62.05 L-58.52 -61.65 L-58.95 -61.24 L-59.37 -60.83 L-59.79 -60.42 L-60.21 -60.00 L-60.62 -59.58 L-61.03 -59.16 L-61.44 -58.73 L-61.85 -58.31 L-62.25 -57.88 L-62.65 -57.44 L-63.05 -57.01 L-63.44 -56.57 L-63.83 -56.13 L-64.22 -55.68 L-64.61 -55.24 L-64.99 -54.79 L-65.37 -54.34 L-65.74 -53.88 L-66.11 -53.42 L-66.48 -52.96 L-66.85 -52.50 L-67.21 -52.04 L-67.57 -51.57 L-67.93 -51.10 L-68.28 -50.63 L-68.63 -50.15 L-68.97 -49.68 L-69.32 -49.20 L-69.66 -48.71 L-69.99 -48.23 L-70.33 -47.74 L-70.65 -47.25 L-70.98 -46.76 L-71.30 -46.27 L-71.62 -45.77 L-71.94 -45.28 L-72.25 -44.78 L-72.56 -44.27 L-72.86 -43.77 L-73.17 -43.26 L-73.46 -42.75 L-73.76 -42.24 L-74.05 -41.73 L-74.34 -41.22 L-74.62 -40.70 L-74.90 -40.18 L-75.18 -39.66 L-75.45 -39.14 L-75.72 -38.62 L-75.99 -38.09 L-76.25 -37.56 L-76.51 -37.03 L-76.76 -36.50 L-77.02 -35.97 L-77.26 -35.43 L-77.51 -34.90 L-77.75 -34.36 L-77.98 -33.82 L-78.22 -33.28 L-78.44 -32.73 L-78.67 -32.19 L-78.89 -31.64 L-79.11 -31.09 L-79.32 -30.54 L-79.53 -29.99 L-79.74 -29.44 L-79.94 -28.89 L-80.14 -28.33 L-80.33 -27.78 L-80.52 -27.22 L-80.71 -26.66 L-80.89 -26.10 L-81.07 -25.54 L-81.25 -24.97 L-81.42 -24.41 L-81.59 -23.84 L-81.75 -23.28 L-81.91 -22.71 L-82.07 -22.14 L-82.22 -21.57 L-82.36 -21.00 L-82.51 -20.43 L-82.65 -19.86 L-82.78 -19.28 L-82.92 -18.71 L-83.04 -18.13 L-83.17 -17.56 L-83.29 -16.98 L-83.40 -16.40 L-83.51 -15.82 L-83.62 -15.24 L-83.73 -14.66 L-83.83 -14.08 L-83.92 -13.50 L-84.01 -12.92 L-84.10 -12.34 L-84.18 -11.75 L-84.26 -11.17 L-84.34 -10.58 L-84.41 -10.00 L-84.48 -9.41 L-84.54 -8.83 L-84.60 -8.24 L-84.65 -7.65 L-84.71 -7.07 L-84.75 -6.48 L-84.80 -5.89 L-84.83 -5.30 L-84.87 -4.71 L-84.90 -4.12 L-84.93 -3.54 L-84.95 -2.95 L-84.97 -2.36 L-84.98 -1.77 L-84.99 -1.18 L-85.00 -0.59 L-85.00 0.00 L-84.99 0.00 L-84.98 0.00 L-84.95 0.00 L-84.92 0.00 L-84.87 0.00 L-84.82 0.00 L-84.75 0.00 L-84.67 0.00 L-84.59 0.00 L-84.49 0.00 L-84.38 0.00 L-84.27 0.00 L-84.14 0.00 L-84.00 0.00 L-83.86 0.00 L-83.70 0.00 L-83.54 0.00 L-83.36 0.00 L-83.18 0.00 L-82.98 0.00 L-82.78 0.00 L-82.57 0.00 L-82.35 0.00 L-82.12 0.00 L-81.88 0.00 L-81.63 0.00 L-81.38 0.00 L-81.11 0.00 L-80.84 0.00 L-80.56 0.00 L-80.27 0.00 L-79.97 0.00 L-79.67 0.00 L-79.36 0.00 L-79.04 0.00 L-78.71 0.00 L-78.38 0.00 L-78.04 0.00 L-77.69 0.00 L-77.34 0.00 L-76.97 0.00 L-76.61 0.00 L-76.24 0.00 L-75.86 0.00 L-75.47 0.00 L-75.08 0.00 L-74.69 0.00 L-74.29 0.00 L-73.88 0.00 L-73.48 0.00 L-73.06 0.00 L-72.64 0.00 L-72.22 0.00 L-71.80 0.00 L-71.37 0.00 L-70.93 0.00 L-70.50 0.00 L-70.06 0.00 L-69.62 0.00 L-69.17 0.00 L-68.73 0.00 L-68.28 0.00 L-67.83 0.00 L-67.38 0.00 L-66.92 0.00 L-66.47 0.00 L-66.01 0.00 L-65.56 0.00 L-65.10 0.00 L-64.64 0.00 L-64.19 0.00 L-63.73 0.00 L-63.27 0.00 L-62.82 0.00 L-62.36 0.00 L-61.91 0.00 L-61.46 0.00 L-61.01 0.00 L-60.56 0.00 L-60.11 0.00 L-59.67 0.00 L-59.23 0.00 L-58.79 0.00 L-58.35 0.00 L-57.92 0.00 L-57.49 0.00 L-57.06 0.00 L-56.64 0.00 L-56.22 0.00 L-55.81 0.00 L-55.40 0.00 L-55.00 0.00 L-54.60 0.00 L-54.20 0.00 L-53.81 0.00 L-53.43 0.00 L-53.05 0.00 L-52.68 0.00 L-52.31 0.00 L-51.95 0.00 L-51.60 0.00 L-51.25 0.00 L-50.91 0.00 L-50.57 0.00 L-50.25 0.00 L-49.93 0.00 L-49.62 0.00 L-49.31 0.00 L-49.01 0.00 L-48.73 0.00 L-48.45 0.00 L-48.17 0.00 L-47.91 0.00 L-47.65 0.00 L-47.41 0.00 L-47.17 0.00 L-46.94 0.00 L-46.72 0.00 L-46.50 0.00 L-46.30 0.00 L-46.11 0.00 L-45.92 0.00 L-45.75 0.00 L-45.58 0.00 L-45.43 0.00 L-45.28 0.00 L-45.14 0.00 L-45.02 0.00 L-44.90 0.00 L-44.80 0.00 L-44.70 0.00 L-44.61 0.00 L-44.54 0.00 L-44.47 0.00 L-44.41 0.00 L-44.37 0.00 L-44.33 0.00 L-44.31 0.00 L-44.29 0.00 L-44.28 0.00"/>
</g>
<line x1="0" y1="-85.00" x2="0" y2="85.00" stroke="#000000" stroke-width="0.5292" stroke-dasharray="3.175 2.117"/>
<path d="M0.00 -85.00 L0.59 -85.00 L1.19 -84.99 L1.78 -84.98 L2.37 -84.97 L2.97 -84.95 L3.56 -84.93 L4.15 -84.90 L4.74 -84.87 L5.34 -84.83 L5.93 -84.79 L6.52 -84.75 L7.11 -84.70 L7.70 -84.65 L8.29 -84.59 L8.88 -84.53 L9.47 -84.47 L10.06 -84.40 L10.65 -84.33 L11.24 -84.25 L11.83 -84.17 L12.42 -84.09 L13.00 -84.00 L13.59 -83.91 L14.18 -83.81 L14.76 -83.71 L15.34 -83.60 L15.93 -83.49 L16.51 -83.38 L17.09 -83.26 L17.67 -83.14 L18.25 -83.02 L18.83 -82.89 L19.41 -82.75 L19.99 -82.62 L20.56 -82.48 L21.14 -82.33 L21.71 -82.18 L22.29 -82.03 L22.86 -81.87 L23.43 -81.71 L24.00 -81.54 L24.57 -81.37 L25.14 -81.20 L25.70 -81.02 L26.27 -80.84 L26.83 -80.65 L27.39 -80.47 L27.95 -80.27 L28.51 -80.07 L29.07 -79.87 L29.63 -79.67 L30.18 -79.46 L30.74 -79.25 L31.29 -79.03 L31.84 -78.81 L32.39 -78.59 L32.94 -78.36 L33.49 -78.13 L34.03 -77.89 L34.57 -77.65 L35.11 -77.41 L35.65 -77.16 L36.19 -76.91 L36.73 -76.66 L37.26 -76.40 L37.79 -76.14 L38.32 -75.87 L38.85 -75.60 L39.38 -75.33 L39.91 -75.05 L40.43 -74.77 L40.95 -74.49 L41.47 -74.20 L41.99 -73.91 L42.50 -73.61 L43.01 -73.31 L43.52 -73.01 L44.03 -72.71 L44.54 -72.40 L45.04 -72.08 L45.55 -71.77 L46.05 -71.45 L46.54 -71.12 L47.04 -70.80 L47.53 -70.47 L48.02 -70.13 L48.51 -69.80 L49.00 -69.46 L49.48 -69.11 L49.96 -68.77 L50.44 -68.42 L50.92 -68.06 L51.39 -67.71 L51.86 -67.34 L52.33 -66.98 L52.80 -66.61 L53.26 -66.24 L53.72 -65.87 L54.18 -65.49 L54.64 -65.11 L55.09 -64.73 L55.54 -64.34 L55.99 -63.96 L56.43 -63.56 L56.88 -63.17 L57.32 -62.77 L57.75 -62.37 L58.19 -61.96 L58.62 -61.55 L59.05 -61.14 L59.47 -60.73 L59.89 -60.31 L60.31 -59.89 L60.73 -59.47 L61.14 -59.05 L61.55 -58.62 L61.96 -58.19 L62.37 -57.75 L62.77 -57.32 L63.17 -56.88 L63.56 -56.43 L63.96 -55.99 L64.34 -55.54 L64.73 -55.09 L65.11 -54.64 L65.49 -54.18 L65.87 -53.72 L66.24 -53.26 L66.61 -52.80 L66.98 -52.33 L67.34 -51.86 L67.71 -51.39 L68.06 -50.92 L68.42 -50.44 L68.77 -49.96 L69.11 -49.48 L69.46 -49.00 L69.80 -48.51 L70.13 -48.02 L70.47 -47.53 L70.80 -47.04 L71.12 -46.54 L71.45 -46.05 L71.77 -45.55 L72.08 -45.04 L72.40 -44.54 L72.71 -44.03 L73.01 -43.52 L73.31 -43.01 L73.61 -42.50 L73.91 -41.99 L74.20 -41.47 L74.49 -40.95 L74.77 -40.43 L75.05 -39.91 L75.33 -39.38 L75.60 -38.85 L75.87 -38.32 L76.14 -37.79 L76.40 -37.26 L76.66 -36.73 L76.91 -36.19 L77.16 -35.65 L77.41 -35.11 L77.65 -34.57 L77.89 -34.03 L78.13 -33.49 L78.36 -32.94 L78.59 -32.39 L78.81 -31.84 L79.03 -31.29 L79.25 -30.74 L79.46 -30.18 L79.67 -29.63 L79.87 -29.07 L80.07 -28.51 L80.27 -27.95 L80.47 -27.39 L80.65 -26.83 L80.84 -26.27 L81.02 -25.70 L81.20 -25.14 L81.37 -24.57 L81.54 -24.00 L81.71 -23.43 L81.87 -22.86 L82.03 -22.29 L82.18 -21.71 L82.33 -21.14 L82.48 -20.56 L82.62 -19.99 L82.75 -19.41 L82.89 -18.83 L83.02 -18.25 L83.14 -17.67 L83.26 -17.09 L83.38 -16.51 L83.49 -15.93 L83.60 -15.34 L83.71 -14.76 L83.81 -14.18 L83.91 -13.59 L84.00 -13.00 L84.09 -12.42 L84.17 -11.83 L84.25 -11.24 L84.33 -10.65 L84.40 -10.06 L84.47 -9.47 L84.53 -8.88 L84.59 -8.29 L84.65 -7.70 L84.70 -7.11 L84.75 -6.52 L84.79 -5.93 L84.83 -5.34 L84.87 -4.74 L84.90 -4.15 L84.93 -3.56 L84.95 -2.97 L84.97 -2.37 L84.98 -1.78 L84.99 -1.19 L85.00 -0.59 L85.00 -0.00 L85.00 0.59 L84.99 1.19 L84.98 1.78 L84.97 2.37 L84.95 2.97 L84.93 3.56 L84.90 4.15 L84.87 4.74 L84.83 5.34 L84.79 5.93 L84.75 6.52 L84.70 7.11 L84.65 7.70 L84.59 8.29 L84.53 8.88 L84.47 9.47 L84.40 10.06 L84.33 10.65 L84.25 11.24 L84.17 11.83 L84.09 12.42 L84.00 13.00 L83.91 13.59 L83.81 14.18 L83.71 14.76 L83.60 15.34 L83.49 15.93 L83.38 16.51 L83.26 17.09 L83.14 17.67 L83.02 18.25 L82.89 18.83 L82.75 19.41 L82.62 19.99 L82.48 20.56 L82.33 21.14 L82.18 21.71 L82.03 22.29 L81.87 22.86 L81.71 23.43 L81.54 24.00 L81.37 24.57 L81.20 25.14 L81.02 25.70 L80.84 26.27 L80.65 26.83 L80.47 27.39 L80.27 27.95 L80.07 28.51 L79.87 29.07 L79.67 29.63 L79.46 30.18 L79.25 30.74 L79.03 31.29 L78.81 31.84 L78.59 32.39 L78.36 32.94 L78.13 33.49 L77.89 34.03 L77.65 34.57 L77.41 35.11 L77.16 35.65 L76.91 36.19 L76.66 36.73 L76.40 37.26 L76.14 37.79 L75.87 38.32 L75.60 38.85 L75.33 39.38 L75.05 39.91 L74.77 40.43 L74.49 40.95 L74.20 41.47 L73.91 41.99 L73.61 42.50 L73.31 43.01 L73.01 43.52 L72.71 44.03 L72.40 44.54 L72.08 45.04 L71.77 45.55 L71.45 46.05 L71.12 46.54 L70.80 47.04 L70.47 47.53 L70.13 48.02 L69.80 48.51 L69.46 49.00 L69.11 49.48 L68.77 49.96 L68.42 50.44 L68.06 50.92 L67.71 51.39 L67.34 51.86 L66.98 52.33 L66.61 52.80 L66.24 53.26 L65.87 53.72 L65.49 54.18 L65.11 54.64 L64.73 55.09 L64.34 55.54 L63.96 55.99 L63.56 56.43 L63.17 56.88 L62.77 57.32 L62.37 57.75 L61.96 58.19 L61.55 58.62 L61.14 59.05 L60.73 59.47 L60.31 59.89 L59.89 60.31 L59.47 60.73 L59.05 61.14 L58.62 61.55 L58.19 61.96 L57.75 62.37 L57.32 62.77 L56.88 63.17 L56.43 63.56 L55.99 63.96 L55.54 64.34 L55.09 64.73 L54.64 65.11 L54.18 65.49 L53.72 65.87 L53.26 66.24 L52.80 66.61 L52.33 66.98 L51.86 67.34 L51.39 67.71 L50.92 68.06 L50.44 68.42 L49.96 68.77 L49.48 69.11 L49.00 69.46 L48.51 69.80 L48.02 70.13 L47.53 70.47 L47.04 70.80 L46.54 71.12 L46.05 71.45 L45.55 71.77 L45.04 72.08 L44.54 72.40 L44.03 72.71 L43.52 73.01 L43.01 73.31 L42.50 73.61 L41.99 73.91 L41.47 74.20 L40.95 74.49 L40.43 74.77 L39.91 75.05 L39.38 75.33 L38.85 75.60 L38.32 75.87 L37.79 76.14 L37.26 76.40 L36.73 76.66 L36.19 76.91 L35.65 77.16 L35.11 77.41 L34.57 77.65 L34.03 77.89 L33.49 78.13 L32.94 78.36 L32.39 78.59 L31.84 78.81 L31.29 79.03 L30.74 79.25 L30.18 79.46 L29.63 79.67 L29.07 79.87 L28.51 80.07 L27.95 80.27 L27.39 80.47 L26.83 80.65 L26.27 80.84 L25.70 81.02 L25.14 81.20 L24.57 81.37 L24.00 81.54 L23.43 81.71 L22.86 81.87 L22.29 82.03 L21.71 82.18 L21.14 82.33 L20.56 82.48 L19.99 82.62 L19.41 82.75 L18.83 82.89 L18.25 83.02 L17.67 83.14 L17.09 83.26 L16.51 83.38 L15.93 83.49 L15.34 83.60 L14.76 83.71 L14.18 83.81 L13.59 83.91 L13.00 84.00 L12.42 84.09 L11.83 84.17 L11.24 84.25 L10.65 84.33 L10.06 84.40 L9.47 84.47 L8.88 84.53 L8.29 84.59 L7.70 84.65 L7.11 84.70 L6.52 84.75 L5.93 84.79 L5.34 84.83 L4.74 84.87 L4.15 84.90 L3.56 84.93 L2.97 84.95 L2.37 84.97 L1.78 84.98 L1.19 84.99 L0.59 85.00 L0.00 85.00" fill="none" stroke="#000000" stroke-width="0.5292" stroke-linecap="round" stroke-dasharray="0 2.117"/>
</svg>