<svg xmlns="http://www.w3.org/2000/svg" width="176mm" height="176mm" viewBox="-88 -88 176 176"><path d="M0,-81.169 A7.438,7.438 0 0 1 14.095,-79.935 A7.438,7.438 0 0 1 27.761,-76.273 A7.438,7.438 0 0 1 40.584,-70.294 A7.438,7.438 0 0 1 52.174,-62.179 A7.438,7.438 0 0 1 62.179,-52.174 A7.438,7.438 0 0 1 70.294,-40.584 A7.438,7.438 0 0 1 76.273,-27.761 A7.438,7.438 0 0 1 79.935,-14.095 A7.438,7.438 0 0 1 81.169,0 A7.438,7.438 0 0 1 79.935,14.095 A7.438,7.438 0 0 1 76.273,27.761 A7.438,7.438 0 0 1 70.294,40.584 A7.438,7.438 0 0 1 62.179,52.174 A7.438,7.438 0 0 1 52.174,62.179 A7.438,7.438 0 0 1 40.584,70.294 A7.438,7.438 0 0 1 27.761,76.273 A7.438,7.438 0 0 1 14.095,79.935 A7.438,7.438 0 0 1 0,81.169 A7.438,7.438 0 0 1 -14.095,79.935 A7.438,7.438 0 0 1 -27.761,76.273 A7.438,7.438 0 0 1 -40.584,70.294 A7.438,7.438 0 0 1 -52.174,62.179 A7.438,7.438 0 0 1 -62.179,52.174 A7.438,7.438 0 0 1 -70.294,40.584 A7.438,7.438 0 0 1 -76.273,27.761 A7.438,7.438 0 0 1 -79.935,14.095 A7.438,7.438 0 0 1 -81.169,0 A7.438,7.438 0 0 1 -79.935,-14.095 A7.438,7.438 0 0 1 -76.273,-27.761 A7.438,7.438 0 0 1 -70.294,-40.584 A7.438,7.438 0 0 1 -62.179,-52.174 A7.438,7.438 0 0 1 -52.174,-62.179 A7.438,7.438 0 0 1 -40.584,-70.294 A7.438,7.438 0 0 1 -27.761,-76.273 A7.438,7.438 0 0 1 -14.095,-79.935 A7.438,7.438 0 0 1 0,-81.169 Z" fill="#ffffff" stroke="#111111" stroke-width="0.75" stroke-linejoin="round" stroke-linecap="round"/><path d="M0,-71.506 L0,-81.169" fill="none" stroke="#111111" stroke-width="0.75" stroke-linejoin="round" stroke-linecap="round"/><path d="M24.456,-67.193 L27.761,-76.273" fill="none" stroke="#111111" stroke-width="0.75" stroke-linejoin="round" stroke-linecap="round"/><path d="M45.963,-54.776 L52.174,-62.179" fill="none" stroke="#111111" stroke-width="0.75" stroke-linejoin="round" stroke-linecap="round"/><path d="M61.926,-35.753 L70.294,-40.584" fill="none" stroke="#111111" stroke-width="0.75" stroke-linejoin="round" stroke-linecap="round"/><path d="M70.419,-12.417 L79.935,-14.095" fill="none" stroke="#111111" stroke-width="0.75" stroke-linejoin="round" stroke-linecap="round"/><path d="M70.419,12.417 L79.935,14.095" fill="none" stroke="#111111" stroke-width="0.75" stroke-linejoin="round" stroke-linecap="round"/><path d="M61.926,35.753 L70.294,40.584" fill="none" stroke="#111111" stroke-width="0.75" stroke-linejoin="round" stroke-linecap="round"/><path d="M45.963,54.776 L52.174,62.179" fill="none" stroke="#111111" stroke-width="0.75" stroke-linejoin="round" stroke-linecap="round"/><path d="M24.456,67.193 L27.761,76.273" fill="none" stroke="#111111" stroke-width="0.75" stroke-linejoin="round" stroke-linecap="round"/><path d="M0,71.506 L0,81.169" fill="none" stroke="#111111" stroke-width="0.75" stroke-linejoin="round" stroke-linecap="round"/><path d="M-24.456,67.193 L-27.761,76.273" fill="none" stroke="#111111" stroke-width="0.75" stroke-linejoin="round" stroke-linecap="round"/><path d="M-45.963,54.776 L-52.174,62.179" fill="none" stroke="#111111" stroke-width="0.75" stroke-linejoin="round" stroke-linecap="round"/><path d="M-61.926,35.753 L-70.294,40.584" fill="none" stroke="#111111" stroke-width="0.75" stroke-linejoin="round" stroke-linecap="round"/><path d="M-70.419,12.417 L-79.935,14.095" fill="none" stroke="#111111" stroke-width="0.75" stroke-linejoin="round" stroke-linecap="round"/><path d="M-70.419,-12.417 L-79.935,-14.095" fill="none" stroke="#111111" stroke-width="0.75" stroke-linejoin="round" stroke-linecap="round"/><path d="M-61.926,-35.753 L-70.294,-40.584" fill="none" stroke="#111111" stroke-width="0.75" stroke-linejoin="round" stroke-linecap="round"/><path d="M-45.963,-54.776 L-52.174,-62.179" fill="none" stroke="#111111" stroke-width="0.75" stroke-linejoin="round" stroke-linecap="round"/><path d="M-24.456,-67.193 L-27.761,-76.273" fill="none" stroke="#111111" stroke-width="0.75" stroke-linejoin="round" stroke-linecap="round"/><circle cx="0" cy="0" r="71.506" fill="#ffffff" stroke="#111111" stroke-width="0.75" stroke-linejoin="round" stroke-linecap="round"/><circle cx="0" cy="0" r="59.91" fill="#ffffff" stroke="#111111" stroke-width="0.75" stroke-linejoin="round" stroke-linecap="round"/><g class="petalo"><path d="M0,-30.921 C16.698,-36.779 9.276,-52.595 0,-60.21 C-9.276,-52.595 -16.698,-36.779 0,-30.921 Z" fill="#ffffff" stroke="#111111" stroke-width="0.75" stroke-linejoin="round" stroke-linecap="round"/></g><g class="petalo"><path d="M26.779,-15.461 C40.2,-3.929 50.187,-18.264 52.143,-30.105 C40.91,-34.331 23.503,-32.85 26.779,-15.461 Z" fill="#ffffff" stroke="#111111" stroke-width="0.75" stroke-linejoin="round" stroke-linecap="round"/></g><g class="petalo"><path d="M26.779,15.461 C23.503,32.85 40.91,34.331 52.143,30.105 C50.187,18.264 40.2,3.929 26.779,15.461 Z" fill="#ffffff" stroke="#111111" stroke-width="0.75" stroke-linejoin="round" stroke-linecap="round"/></g><g class="petalo"><path d="M0,30.921 C-16.698,36.779 -9.276,52.595 0,60.21 C9.276,52.595 16.698,36.779 0,30.921 Z" fill="#ffffff" stroke="#111111" stroke-width="0.75" stroke-linejoin="round" stroke-linecap="round"/></g><g class="petalo"><path d="M-26.779,15.461 C-40.2,3.929 -50.187,18.264 -52.143,30.105 C-40.91,34.331 -23.503,32.85 -26.779,15.461 Z" fill="#ffffff" stroke="#111111" stroke-width="0.75" stroke-linejoin="round" stroke-linecap="round"/></g><g class="petalo"><path d="M-26.779,-15.461 C-23.503,-32.85 -40.91,-34.331 -52.143,-30.105 C-50.187,-18.264 -40.2,-3.929 -26.779,-15.461 Z" fill="#ffffff" stroke="#111111" stroke-width="0.75" stroke-linejoin="round" stroke-linecap="round"/></g><g class="petalo"><path d="M15.461,-26.779 C32.85,-23.503 34.331,-40.91 30.105,-52.143 C18.264,-50.187 3.929,-40.2 15.461,-26.779 Z" fill="#ffffff" stroke="#111111" stroke-width="0.75" stroke-linejoin="round" stroke-linecap="round"/></g><g class="petalo"><path d="M30.921,0 C36.779,16.698 52.595,9.276 60.21,0 C52.595,-9.276 36.779,-16.698 30.921,0 Z" fill="#ffffff" stroke="#111111" stroke-width="0.75" stroke-linejoin="round" stroke-linecap="round"/></g><g class="petalo"><path d="M15.461,26.779 C3.929,40.2 18.264,50.187 30.105,52.143 C34.331,40.91 32.85,23.503 15.461,26.779 Z" fill="#ffffff" stroke="#111111" stroke-width="0.75" stroke-linejoin="round" stroke-linecap="round"/></g><g class="petalo"><path d="M-15.461,26.779 C-32.85,23.503 -34.331,40.91 -30.105,52.143 C-18.264,50.187 -3.929,40.2 -15.461,26.779 Z" fill="#ffffff" stroke="#111111" stroke-width="0.75" stroke-linejoin="round" stroke-linecap="round"/></g><g class="petalo"><path d="M-30.921,0 C-36.779,-16.698 -52.595,-9.276 -60.21,0 C-52.595,9.276 -36.779,16.698 -30.921,0 Z" fill="#ffffff" stroke="#111111" stroke-width="0.75" stroke-linejoin="round" stroke-linecap="round"/></g><g class="petalo"><path d="M-15.461,-26.779 C-3.929,-40.2 -18.264,-50.187 -30.105,-52.143 C-34.331,-40.91 -32.85,-23.503 -15.461,-26.779 Z" fill="#ffffff" stroke="#111111" stroke-width="0.75" stroke-linejoin="round" stroke-linecap="round"/></g><g class="petalo"><path d="M8.003,-29.868 C16.868,-30.694 15.444,-39.718 12.005,-44.802 C6.484,-42.119 0.739,-35.015 8.003,-29.868 Z" fill="#ffffff" stroke="#111111" stroke-width="0.75" stroke-linejoin="round" stroke-linecap="round"/></g><g class="petalo"><path d="M29.868,-8.003 C35.015,-0.739 42.119,-6.484 44.802,-12.005 C39.718,-15.444 30.694,-16.868 29.868,-8.003 Z" fill="#ffffff" stroke="#111111" stroke-width="0.75" stroke-linejoin="round" stroke-linecap="round"/></g><g class="petalo"><path d="M21.865,21.865 C18.148,29.955 26.675,33.234 32.797,32.797 C33.234,26.675 29.955,18.148 21.865,21.865 Z" fill="#ffffff" stroke="#111111" stroke-width="0.75" stroke-linejoin="round" stroke-linecap="round"/></g><g class="petalo"><path d="M-8.003,29.868 C-16.868,30.694 -15.444,39.718 -12.005,44.802 C-6.484,42.119 -0.739,35.015 -8.003,29.868 Z" fill="#ffffff" stroke="#111111" stroke-width="0.75" stroke-linejoin="round" stroke-linecap="round"/></g><g class="petalo"><path d="M-29.868,8.003 C-35.015,0.739 -42.119,6.484 -44.802,12.005 C-39.718,15.444 -30.694,16.868 -29.868,8.003 Z" fill="#ffffff" stroke="#111111" stroke-width="0.75" stroke-linejoin="round" stroke-linecap="round"/></g><g class="petalo"><path d="M-21.865,-21.865 C-18.148,-29.955 -26.675,-33.234 -32.797,-32.797 C-33.234,-26.675 -29.955,-18.148 -21.865,-21.865 Z" fill="#ffffff" stroke="#111111" stroke-width="0.75" stroke-linejoin="round" stroke-linecap="round"/></g><g class="petalo"><path d="M21.865,-21.865 C29.955,-18.148 33.234,-26.675 32.797,-32.797 C26.675,-33.234 18.148,-29.955 21.865,-21.865 Z" fill="#ffffff" stroke="#111111" stroke-width="0.75" stroke-linejoin="round" stroke-linecap="round"/></g><g class="petalo"><path d="M29.868,8.003 C30.694,16.868 39.718,15.444 44.802,12.005 C42.119,6.484 35.015,0.739 29.868,8.003 Z" fill="#ffffff" stroke="#111111" stroke-width="0.75" stroke-linejoin="round" stroke-linecap="round"/></g><g class="petalo"><path d="M8.003,29.868 C0.739,35.015 6.484,42.119 12.005,44.802 C15.444,39.718 16.868,30.694 8.003,29.868 Z" fill="#ffffff" stroke="#111111" stroke-width="0.75" stroke-linejoin="round" stroke-linecap="round"/></g><g class="petalo"><path d="M-21.865,21.865 C-29.955,18.148 -33.234,26.675 -32.797,32.797 C-26.675,33.234 -18.148,29.955 -21.865,21.865 Z" fill="#ffffff" stroke="#111111" stroke-width="0.75" stroke-linejoin="round" stroke-linecap="round"/></g><g class="petalo"><path d="M-29.868,-8.003 C-30.694,-16.868 -39.718,-15.444 -44.802,-12.005 C-42.119,-6.484 -35.015,-0.739 -29.868,-8.003 Z" fill="#ffffff" stroke="#111111" stroke-width="0.75" stroke-linejoin="round" stroke-linecap="round"/></g><g class="petalo"><path d="M-8.003,-29.868 C-0.739,-35.015 -6.484,-42.119 -12.005,-44.802 C-15.444,-39.718 -16.868,-30.694 -8.003,-29.868 Z" fill="#ffffff" stroke="#111111" stroke-width="0.75" stroke-linejoin="round" stroke-linecap="round"/></g><g class="petalo"><path d="M0,-23.191 C18.089,-25.51 10.049,-31.772 0,-34.787 C-10.049,-31.772 -18.089,-25.51 0,-23.191 Z" fill="#ffffff" stroke="#111111" stroke-width="0.75" stroke-linejoin="round" stroke-linecap="round"/></g><g class="petalo"><path d="M20.084,11.596 C13.048,28.421 22.49,24.589 30.126,17.393 C32.54,7.183 31.137,-2.91 20.084,11.596 Z" fill="#ffffff" stroke="#111111" stroke-width="0.75" stroke-linejoin="round" stroke-linecap="round"/></g><g class="petalo"><path d="M-20.084,11.596 C-31.137,-2.91 -32.54,7.183 -30.126,17.393 C-22.49,24.589 -13.048,28.421 -20.084,11.596 Z" fill="#ffffff" stroke="#111111" stroke-width="0.75" stroke-linejoin="round" stroke-linecap="round"/></g><g class="petalo"><path d="M20.084,-11.596 C31.137,2.91 32.54,-7.183 30.126,-17.393 C22.49,-24.589 13.048,-28.421 20.084,-11.596 Z" fill="#ffffff" stroke="#111111" stroke-width="0.75" stroke-linejoin="round" stroke-linecap="round"/></g><g class="petalo"><path d="M0,23.191 C-18.089,25.51 -10.049,31.772 0,34.787 C10.049,31.772 18.089,25.51 0,23.191 Z" fill="#ffffff" stroke="#111111" stroke-width="0.75" stroke-linejoin="round" stroke-linecap="round"/></g><g class="petalo"><path d="M-20.084,-11.596 C-13.048,-28.421 -22.49,-24.589 -30.126,-17.393 C-32.54,-7.183 -31.137,2.91 -20.084,-11.596 Z" fill="#ffffff" stroke="#111111" stroke-width="0.75" stroke-linejoin="round" stroke-linecap="round"/></g><circle cx="0" cy="0" r="59.91" fill="none" stroke="#111111" stroke-width="0.75" stroke-linejoin="round" stroke-linecap="round"/><circle cx="0" cy="0" r="19.326" fill="#ffffff" stroke="#111111" stroke-width="0.75" stroke-linejoin="round" stroke-linecap="round"/><circle cx="0" cy="0" r="9.663" fill="#ffffff" stroke="#111111" stroke-width="0.75" stroke-linejoin="round" stroke-linecap="round"/></svg>