<svg xmlns="http://www.w3.org/2000/svg" width="168mm" height="168mm" viewBox="-84 -84 168 168"><g transform="scale(1.079)"><path d="M0,-69 A12.943,12.943 0 0 1 23.599,-64.839 A12.943,12.943 0 0 1 44.352,-52.857 A12.943,12.943 0 0 1 59.756,-34.5 A12.943,12.943 0 0 1 67.952,-11.982 A12.943,12.943 0 0 1 67.952,11.982 A12.943,12.943 0 0 1 59.756,34.5 A12.943,12.943 0 0 1 44.352,52.857 A12.943,12.943 0 0 1 23.599,64.839 A12.943,12.943 0 0 1 0,69 A12.943,12.943 0 0 1 -23.599,64.839 A12.943,12.943 0 0 1 -44.352,52.857 A12.943,12.943 0 0 1 -59.756,34.5 A12.943,12.943 0 0 1 -67.952,11.982 A12.943,12.943 0 0 1 -67.952,-11.982 A12.943,12.943 0 0 1 -59.756,-34.5 A12.943,12.943 0 0 1 -44.352,-52.857 A12.943,12.943 0 0 1 -23.599,-64.839 A12.943,12.943 0 0 1 0,-69 Z" fill="#9560B5" stroke="#000000" stroke-width="1.145" stroke-linejoin="round" stroke-linecap="round"/><path d="M0,-57 L0,-69" fill="none" stroke="#000000" stroke-width="0.981" stroke-linejoin="round" stroke-linecap="round"/><path d="M19.495,-53.562 L23.599,-64.839" fill="none" stroke="#000000" stroke-width="0.981" stroke-linejoin="round" stroke-linecap="round"/><path d="M36.639,-43.665 L44.352,-52.857" fill="none" stroke="#000000" stroke-width="0.981" stroke-linejoin="round" stroke-linecap="round"/><path d="M49.363,-28.5 L59.756,-34.5" fill="none" stroke="#000000" stroke-width="0.981" stroke-linejoin="round" stroke-linecap="round"/><path d="M56.134,-9.898 L67.952,-11.982" fill="none" stroke="#000000" stroke-width="0.981" stroke-linejoin="round" stroke-linecap="round"/><path d="M56.134,9.898 L67.952,11.982" fill="none" stroke="#000000" stroke-width="0.981" stroke-linejoin="round" stroke-linecap="round"/><path d="M49.363,28.5 L59.756,34.5" fill="none" stroke="#000000" stroke-width="0.981" stroke-linejoin="round" stroke-linecap="round"/><path d="M36.639,43.665 L44.352,52.857" fill="none" stroke="#000000" stroke-width="0.981" stroke-linejoin="round" stroke-linecap="round"/><path d="M19.495,53.562 L23.599,64.839" fill="none" stroke="#000000" stroke-width="0.981" stroke-linejoin="round" stroke-linecap="round"/><path d="M0,57 L0,69" fill="none" stroke="#000000" stroke-width="0.981" stroke-linejoin="round" stroke-linecap="round"/><path d="M-19.495,53.562 L-23.599,64.839" fill="none" stroke="#000000" stroke-width="0.981" stroke-linejoin="round" stroke-linecap="round"/><path d="M-36.639,43.665 L-44.352,52.857" fill="none" stroke="#000000" stroke-width="0.981" stroke-linejoin="round" stroke-linecap="round"/><path d="M-49.363,28.5 L-59.756,34.5" fill="none" stroke="#000000" stroke-width="0.981" stroke-linejoin="round" stroke-linecap="round"/><path d="M-56.134,9.898 L-67.952,11.982" fill="none" stroke="#000000" stroke-width="0.981" stroke-linejoin="round" stroke-linecap="round"/><path d="M-56.134,-9.898 L-67.952,-11.982" fill="none" stroke="#000000" stroke-width="0.981" stroke-linejoin="round" stroke-linecap="round"/><path d="M-49.363,-28.5 L-59.756,-34.5" fill="none" stroke="#000000" stroke-width="0.981" stroke-linejoin="round" stroke-linecap="round"/><path d="M-36.639,-43.665 L-44.352,-52.857" fill="none" stroke="#000000" stroke-width="0.981" stroke-linejoin="round" stroke-linecap="round"/><path d="M-19.495,-53.562 L-23.599,-64.839" fill="none" stroke="#000000" stroke-width="0.981" stroke-linejoin="round" stroke-linecap="round"/><circle cx="0" cy="0" r="57" fill="#9560B5" stroke="#000000" stroke-width="1.145" stroke-linejoin="round" stroke-linecap="round"/><g class="petalo"><path d="M0,-31 C18.72,-36.26 10.4,-50.462 0,-57.3 C-10.4,-50.462 -18.72,-36.26 0,-31 Z" fill="#D4718C" stroke="#000000" stroke-width="1.145" stroke-linejoin="round" stroke-linecap="round"/></g><g class="petalo"><path d="M21.92,-21.92 C38.877,-12.403 43.036,-28.328 40.517,-40.517 C28.328,-43.036 12.403,-38.877 21.92,-21.92 Z" fill="#6AA3D6" stroke="#000000" stroke-width="1.145" stroke-linejoin="round" stroke-linecap="round"/></g><g class="petalo"><path d="M31,0 C36.26,18.72 50.462,10.4 57.3,0 C50.462,-10.4 36.26,-18.72 31,0 Z" fill="#D4718C" stroke="#000000" stroke-width="1.145" stroke-linejoin="round" stroke-linecap="round"/></g><g class="petalo"><path d="M21.92,21.92 C12.403,38.877 28.328,43.036 40.517,40.517 C43.036,28.328 38.877,12.403 21.92,21.92 Z" fill="#6AA3D6" stroke="#000000" stroke-width="1.145" stroke-linejoin="round" stroke-linecap="round"/></g><g class="petalo"><path d="M0,31 C-18.72,36.26 -10.4,50.462 0,57.3 C10.4,50.462 18.72,36.26 0,31 Z" fill="#D4718C" stroke="#000000" stroke-width="1.145" stroke-linejoin="round" stroke-linecap="round"/></g><g class="petalo"><path d="M-21.92,21.92 C-38.877,12.403 -43.036,28.328 -40.517,40.517 C-28.328,43.036 -12.403,38.877 -21.92,21.92 Z" fill="#6AA3D6" stroke="#000000" stroke-width="1.145" stroke-linejoin="round" stroke-linecap="round"/></g><g class="petalo"><path d="M-31,0 C-36.26,-18.72 -50.462,-10.4 -57.3,0 C-50.462,10.4 -36.26,18.72 -31,0 Z" fill="#D4718C" stroke="#000000" stroke-width="1.145" stroke-linejoin="round" stroke-linecap="round"/></g><g class="petalo"><path d="M-21.92,-21.92 C-12.403,-38.877 -28.328,-43.036 -40.517,-40.517 C-43.036,-28.328 -38.877,-12.403 -21.92,-21.92 Z" fill="#6AA3D6" stroke="#000000" stroke-width="1.145" stroke-linejoin="round" stroke-linecap="round"/></g><g class="petalo"><path d="M9.95,-24.021 C23.301,-22.387 21.699,-33.572 16.838,-40.651 C8.395,-39.082 -0.646,-32.306 9.95,-24.021 Z" fill="#CDBBE4" stroke="#000000" stroke-width="1.145" stroke-linejoin="round" stroke-linecap="round"/></g><g class="petalo"><path d="M24.021,-9.95 C32.306,0.646 39.082,-8.395 40.651,-16.838 C33.572,-21.699 22.387,-23.301 24.021,-9.95 Z" fill="#CDBBE4" stroke="#000000" stroke-width="1.145" stroke-linejoin="round" stroke-linecap="round"/></g><g class="petalo"><path d="M24.021,9.95 C22.387,23.301 33.572,21.699 40.651,16.838 C39.082,8.395 32.306,-0.646 24.021,9.95 Z" fill="#CDBBE4" stroke="#000000" stroke-width="1.145" stroke-linejoin="round" stroke-linecap="round"/></g><g class="petalo"><path d="M9.95,24.021 C-0.646,32.306 8.395,39.082 16.838,40.651 C21.699,33.572 23.301,22.387 9.95,24.021 Z" fill="#CDBBE4" stroke="#000000" stroke-width="1.145" stroke-linejoin="round" stroke-linecap="round"/></g><g class="petalo"><path d="M-9.95,24.021 C-23.301,22.387 -21.699,33.572 -16.838,40.651 C-8.395,39.082 0.646,32.306 -9.95,24.021 Z" fill="#CDBBE4" stroke="#000000" stroke-width="1.145" stroke-linejoin="round" stroke-linecap="round"/></g><g class="petalo"><path d="M-24.021,9.95 C-32.306,-0.646 -39.082,8.395 -40.651,16.838 C-33.572,21.699 -22.387,23.301 -24.021,9.95 Z" fill="#CDBBE4" stroke="#000000" stroke-width="1.145" stroke-linejoin="round" stroke-linecap="round"/></g><g class="petalo"><path d="M-24.021,-9.95 C-22.387,-23.301 -33.572,-21.699 -40.651,-16.838 C-39.082,-8.395 -32.306,0.646 -24.021,-9.95 Z" fill="#CDBBE4" stroke="#000000" stroke-width="1.145" stroke-linejoin="round" stroke-linecap="round"/></g><g class="petalo"><path d="M-9.95,-24.021 C0.646,-32.306 -8.395,-39.082 -16.838,-40.651 C-21.699,-33.572 -23.301,-22.387 -9.95,-24.021 Z" fill="#CDBBE4" stroke="#000000" stroke-width="1.145" stroke-linejoin="round" stroke-linecap="round"/></g><g class="petalo"><path d="M0,-20 C17.28,-22.8 9.6,-30.36 0,-34 C-9.6,-30.36 -17.28,-22.8 0,-20 Z" fill="#C99A32" stroke="#000000" stroke-width="1.145" stroke-linejoin="round" stroke-linecap="round"/></g><g class="petalo"><path d="M20,0 C22.8,17.28 30.36,9.6 34,0 C30.36,-9.6 22.8,-17.28 20,0 Z" fill="#C99A32" stroke="#000000" stroke-width="1.145" stroke-linejoin="round" stroke-linecap="round"/></g><g class="petalo"><path d="M0,20 C-17.28,22.8 -9.6,30.36 0,34 C9.6,30.36 17.28,22.8 0,20 Z" fill="#C99A32" stroke="#000000" stroke-width="1.145" stroke-linejoin="round" stroke-linecap="round"/></g><g class="petalo"><path d="M-20,0 C-22.8,-17.28 -30.36,-9.6 -34,0 C-30.36,9.6 -22.8,17.28 -20,0 Z" fill="#C99A32" stroke="#000000" stroke-width="1.145" stroke-linejoin="round" stroke-linecap="round"/></g><circle cx="0" cy="0" r="57" fill="none" stroke="#000000" stroke-width="1.145" stroke-linejoin="round" stroke-linecap="round"/><circle cx="0" cy="0" r="18" fill="#CDBBE4" stroke="#000000" stroke-width="1.145" stroke-linejoin="round" stroke-linecap="round"/></g></svg>